<svg width="40" height="40" viewBox="0 0 40 40" fill="none" xmlns="http://www.w3.org/2000/svg">
<circle cx="20" cy="20" r="20" fill="#469EFF"/>
<path d="M26.3095 20.5714H20.9524V25.9286C20.9524 26.2127 20.8395 26.4853 20.6386 26.6862C20.4376 26.8871 20.1651 27 19.881 27C19.5968 27 19.3243 26.8871 19.1233 26.6862C18.9224 26.4853 18.8095 26.2127 18.8095 25.9286V20.5714H13.4524C13.1682 20.5714 12.8957 20.4585 12.6948 20.2576C12.4938 20.0567 12.381 19.7842 12.381 19.5C12.381 19.2158 12.4938 18.9433 12.6948 18.7424C12.8957 18.5415 13.1682 18.4286 13.4524 18.4286H18.8095V13.0714C18.8095 12.7873 18.9224 12.5147 19.1233 12.3138C19.3243 12.1129 19.5968 12 19.881 12C20.1651 12 20.4376 12.1129 20.6386 12.3138C20.8395 12.5147 20.9524 12.7873 20.9524 13.0714V18.4286H26.3095C26.5937 18.4286 26.8662 18.5415 27.0671 18.7424C27.2681 18.9433 27.381 19.2158 27.381 19.5C27.381 19.7842 27.2681 20.0567 27.0671 20.2576C26.8662 20.4585 26.5937 20.5714 26.3095 20.5714Z" fill="white"/>
</svg>
