<svg width="20" height="11" viewBox="0 0 20 11" fill="none" xmlns="http://www.w3.org/2000/svg">
<path d="M4.11924 0C2.77825 6.08164e-06 1.69114 1.08535 1.69114 2.42414C1.69112 3.76298 2.77825 4.84829 4.11924 4.84829C5.46026 4.84828 6.54734 3.76294 6.5473 2.42414C6.54729 1.08535 5.46022 0 4.11924 0ZM6.29949 4.79956C5.70472 5.34504 4.92687 5.64825 4.11924 5.64951C3.31279 5.64804 2.53604 5.34544 1.94173 4.80123C0.7359 5.59823 0.00209398 6.99849 0 8.50628C0.000810941 8.52793 0.0017587 8.54955 0.00287041 8.57117H5.82071C6.11918 7.58074 6.72797 6.71076 7.56868 6.11902C7.24613 5.59455 6.81672 5.14158 6.30019 4.79956L6.29949 4.79956Z" fill="#B7BFC2"/>
<path d="M15.8794 0C14.5384 6.08164e-06 13.4513 1.08535 13.4513 2.42414C13.4513 3.76298 14.5384 4.84829 15.8794 4.84829C17.2204 4.84828 18.3075 3.76294 18.3074 2.42414C18.3074 1.08535 17.2204 0 15.8794 0ZM18.0596 4.79956C17.4649 5.34504 16.687 5.64825 15.8794 5.6495C15.0729 5.64804 14.2962 5.34544 13.7019 4.80123C13.1857 5.14237 12.7564 5.59431 12.4336 6.1176C13.2738 6.71007 13.8819 7.5805 14.1796 8.57116H19.9963C19.9974 8.54953 19.9984 8.52792 19.9992 8.50627C19.9983 6.99848 19.2656 5.59761 18.0603 4.79955L18.0596 4.79956Z" fill="#B7BFC2"/>
<path d="M9.99814 1.46777C8.65716 1.46778 7.57004 2.55308 7.57004 3.89192C7.57002 5.23075 8.65712 6.3161 9.99814 6.3161C11.3392 6.31609 12.4262 5.23075 12.4262 3.89192C12.4262 2.55312 11.3392 1.46777 9.99814 1.46777ZM12.1784 6.26695C11.5836 6.81244 10.8058 7.11564 9.99814 7.1169C9.19169 7.11544 8.41498 6.81286 7.82063 6.26866C6.61481 7.06566 5.88096 8.46592 5.87891 9.97367C5.87972 9.99532 5.88068 10.017 5.88179 10.0386H14.1153C14.1164 10.017 14.1174 9.99532 14.1182 9.97367C14.1173 8.46588 13.3846 7.06498 12.1793 6.26695H12.1784Z" fill="#B7BFC2"/>
</svg>
