<svg width="20" height="13" viewBox="0 0 20 13" fill="none" xmlns="http://www.w3.org/2000/svg">
<path d="M19.8368 12.6242C18.6806 11.7174 18.5156 11.2053 18.4592 10.8331C19.2658 10.2487 19.7592 9.46686 19.7592 8.60746C19.7592 7.00807 18.0528 5.67787 15.7956 5.38867C15.6086 7.67646 13.6229 9.57106 10.7891 10.4025C11.6617 11.2951 13.1655 11.8848 14.8752 11.8848C15.6114 11.8848 16.3088 11.7748 16.935 11.5792C17.5944 12.0018 18.7226 12.6498 19.7264 12.8502C20.1858 12.9422 19.9504 12.7132 19.8368 12.6242Z" fill="#469EFF"/>
<path d="M7.52292 0C3.38053 0 0.0223418 2.25279 0.0223418 5.03318C0.0223418 6.53198 0.999338 7.87677 2.54793 8.79877C2.21833 9.40957 1.56694 10.189 0.219941 11.2456C-5.81145e-05 11.418 -0.274857 11.6676 0.61474 11.4898C2.10433 11.1918 3.69393 10.4322 4.90573 9.75117C5.72072 9.95497 6.60212 10.0666 7.52312 10.0666C11.6653 10.0666 15.0235 7.81377 15.0235 5.03338C15.0235 2.25299 11.6651 0 7.52292 0Z" fill="#469EFF"/>
</svg>
