<svg width="27" height="27" viewBox="0 0 27 27" fill="none" xmlns="http://www.w3.org/2000/svg">
<path d="M3.20919 21.125L2.08543 20.6779C2.00514 20.8799 1.98084 21.0999 2.01509 21.3146C2.04935 21.5293 2.14089 21.7307 2.28007 21.8978C2.41924 22.0648 2.6009 22.1911 2.80589 22.2635C3.01088 22.336 3.23161 22.3517 3.44481 22.3092L3.20919 21.125ZM8.8956 19.994L9.46835 18.9295L9.08531 18.724L8.65998 18.8086L8.8956 19.994ZM5.17152 16.1914L6.29527 16.6385L6.49223 16.1382L6.25539 15.6561L5.17152 16.1914ZM21.3342 12.6667C21.3342 16.5889 17.8868 19.9167 13.4438 19.9167V22.3333C19.0516 22.3333 23.7509 18.0872 23.7509 12.6667H21.3342ZM5.55456 12.6667C5.55456 8.74442 9.00314 5.41667 13.445 5.41667V3C7.8371 3 3.13669 7.24608 3.13669 12.6667H5.55456ZM13.445 5.41667C17.8868 5.41667 21.3342 8.74442 21.3342 12.6667H23.7509C23.7509 7.24608 19.0529 3 13.445 3V5.41667ZM13.4438 19.9167C11.9877 19.9167 10.632 19.5542 9.46835 18.9295L8.32285 21.0573C9.89833 21.9 11.6571 22.3384 13.4438 22.3333V19.9167ZM3.44481 22.3092L9.13123 21.1782L8.65998 18.8086L2.97356 19.9396L3.44481 22.3104V22.3092ZM6.25539 15.6561C5.7939 14.7271 5.55483 13.704 5.55456 12.6667H3.13669C3.13669 14.1167 3.47743 15.4917 4.08643 16.7267L6.25539 15.6561ZM4.04898 15.7443L2.08543 20.6791L4.33052 21.5709L6.29285 16.6372L4.04777 15.7443H4.04898Z" fill="#469EFF"/>
<path d="M9.25087 13.875C9.91822 13.875 10.4592 13.334 10.4592 12.6667C10.4592 11.9993 9.91822 11.4583 9.25087 11.4583C8.58353 11.4583 8.04254 11.9993 8.04254 12.6667C8.04254 13.334 8.58353 13.875 9.25087 13.875Z" fill="#469EFF"/>
<path d="M13.48 13.875C14.1473 13.875 14.6883 13.334 14.6883 12.6667C14.6883 11.9993 14.1473 11.4583 13.48 11.4583C12.8127 11.4583 12.2717 11.9993 12.2717 12.6667C12.2717 13.334 12.8127 13.875 13.48 13.875Z" fill="#469EFF"/>
<path d="M17.7092 13.875C18.3765 13.875 18.9175 13.334 18.9175 12.6667C18.9175 11.9993 18.3765 11.4583 17.7092 11.4583C17.0418 11.4583 16.5009 11.9993 16.5009 12.6667C16.5009 13.334 17.0418 13.875 17.7092 13.875Z" fill="#469EFF"/>
</svg>
