<svg width="20" height="19" viewBox="0 0 20 19" fill="none" xmlns="http://www.w3.org/2000/svg">
<path d="M17.0232 9.61878L10.004 3.40234L2.98047 9.62137V18.5078C2.98047 18.7373 3.16592 18.9214 3.39543 18.9214H7.78475V15.0251C7.78475 14.7956 7.96886 14.6101 8.19836 14.6101H11.805C12.0345 14.6101 12.2186 14.7956 12.2186 15.0251V18.9214H16.6092C16.8387 18.9214 17.0229 18.7373 17.0229 18.5078V9.61835L17.0232 9.61878Z" fill="#469EFF"/>
<path d="M9.96122 0L0 8.82002L1.04928 10.0038L10.0021 2.07618L18.9527 10.0038L20 8.82002L10.0409 0L10.0022 0.0448245L9.96147 0H9.96122Z" fill="#469EFF"/>
<path d="M2.98049 1.26953H5.50565L5.48364 2.76516L2.98047 5.02651L2.98049 1.26953Z" fill="#469EFF"/>
</svg>
