<svg width="32" height="32" viewBox="0 0 32 32" fill="none" xmlns="http://www.w3.org/2000/svg">
<path d="M24.6666 26.2133H7.33331C6.22665 26.2133 5.33331 25.32 5.33331 24.2133V11.7066C5.33331 10.6 6.22665 9.70662 7.33331 9.70662H9.26665L9.90665 7.33329C10.1466 6.45329 10.9733 5.78662 11.84 5.78662H20.16C21.0266 5.78662 21.8533 6.45329 22.0933 7.33329L22.7333 9.70662H24.6666C25.7733 9.70662 26.6666 10.6 26.6666 11.7066V24.2133C26.6666 25.32 25.7733 26.2133 24.6666 26.2133ZM7.33331 11.04C6.95998 11.04 6.66665 11.3333 6.66665 11.7066V24.2133C6.66665 24.5866 6.95998 24.88 7.33331 24.88H24.6666C25.04 24.88 25.3333 24.5866 25.3333 24.2133V11.7066C25.3333 11.3333 25.04 11.04 24.6666 11.04H21.7066L20.8 7.67995C20.72 7.35995 20.3866 7.11995 20.16 7.11995H11.84C11.6133 7.11995 11.28 7.35995 11.2 7.67995L10.2933 11.04H7.33331Z" fill="black"/>
<path d="M16 22.5868C13.2933 22.5868 11.0933 20.3868 11.0933 17.6801C11.0933 14.9734 13.2933 12.7734 16 12.7734C18.7067 12.7734 20.9067 14.9734 20.9067 17.6801C20.9067 20.3868 18.7067 22.5868 16 22.5868ZM16 14.1068C14.0267 14.1068 12.4267 15.7068 12.4267 17.6801C12.4267 19.6534 14.0267 21.2534 16 21.2534C17.9733 21.2534 19.5733 19.6534 19.5733 17.6801C19.5733 15.7068 17.9733 14.1068 16 14.1068Z" fill="black"/>
</svg>
