<svg width="123" height="42" viewBox="0 0 123 42" fill="none" xmlns="http://www.w3.org/2000/svg">
<rect x="0.5" y="0.5" width="122" height="41" rx="9.5" fill="#EAF4FF"/>
<path d="M37.1068 16.36H45.2688V17.844H37.1068V16.36ZM35.7768 25.264H47.4948V26.762H35.7768V25.264ZM44.5268 16.36H46.3608V17.494C46.3608 19.062 46.3748 20.896 45.7728 23.71L43.9388 23.514C44.5268 20.882 44.5268 18.992 44.5268 17.494V16.36ZM44.8628 19.482V20.882L36.9528 21.316L36.7008 19.734L44.8628 19.482ZM39.9348 22.156H41.7968V25.81H39.9348V22.156ZM53.4717 16.024H55.0957V16.962C55.0957 19.776 53.0937 22.268 49.7337 22.926L48.9357 21.386C51.8617 20.882 53.4717 18.824 53.4717 16.962V16.024ZM53.8497 16.024H55.4597V16.962C55.4597 18.866 57.0557 20.882 59.9957 21.386L59.1977 22.926C55.8377 22.268 53.8497 19.818 53.8497 16.962V16.024ZM48.6697 25.152H60.4017V26.664H48.6697V25.152ZM72.9945 15.282H74.8705V28.246H72.9945V15.282ZM74.4505 20.112H76.7465V21.652H74.4505V20.112ZM65.0985 16.304H66.9465V19.454H69.5505V16.304H71.3985V25.25H65.0985V16.304ZM66.9465 20.896V23.752H69.5505V20.896H66.9465ZM77.5854 21.302H89.3034V22.814H77.5854V21.302ZM82.4574 22.59H84.3194V28.232H82.4574V22.59ZM78.5094 16.066H81.5334V17.536H78.5094V16.066ZM80.9314 16.066H82.7654V16.892C82.7654 18.04 82.7654 19.65 82.1214 21.932L80.3014 21.638C80.9314 19.482 80.9314 18.012 80.9314 16.892V16.066ZM83.6474 16.066H87.0354V17.536H83.6474V16.066ZM86.1954 16.066H88.0294V16.976C88.0294 18.152 88.0294 19.734 87.5254 21.918L85.7054 21.652C86.1954 19.58 86.1954 18.124 86.1954 16.976V16.066ZM99.3963 15.282H101.272V28.246H99.3963V15.282ZM95.5743 16.626H97.4223C97.4223 20.588 96.0783 23.836 91.4723 26.062L90.5063 24.578C94.2303 22.786 95.5743 20.434 95.5743 16.962V16.626ZM91.1923 16.626H96.4563V18.096H91.1923V16.626Z" fill="#469EFF"/>
<rect x="0.5" y="0.5" width="122" height="41" rx="9.5" stroke="#469EFF"/>
</svg>
