<svg width="35" height="35" viewBox="0 0 35 35" fill="none" xmlns="http://www.w3.org/2000/svg">
<path d="M26.25 11.25L20 17.5L26.25 23.75C26.5815 24.0815 26.7678 24.5312 26.7678 25C26.7678 25.4688 26.5815 25.9185 26.25 26.25C25.9185 26.5815 25.4688 26.7678 25 26.7678C24.5312 26.7678 24.0815 26.5815 23.75 26.25L17.5 20L11.25 26.25C10.9185 26.5815 10.4688 26.7678 10 26.7678C9.53116 26.7678 9.08152 26.5815 8.75 26.25C8.41848 25.9185 8.23223 25.4688 8.23223 25C8.23223 24.5312 8.41848 24.0815 8.75 23.75L15 17.5L8.75 11.25C8.41848 10.9185 8.23223 10.4688 8.23223 10C8.23223 9.53116 8.41848 9.08152 8.75 8.75C9.08152 8.41848 9.53116 8.23223 10 8.23223C10.4688 8.23223 10.9185 8.41848 11.25 8.75L17.5 15L23.75 8.75C24.0815 8.41848 24.5312 8.23223 25 8.23223C25.4688 8.23223 25.9185 8.41848 26.25 8.75C26.5815 9.08152 26.7678 9.53116 26.7678 10C26.7678 10.4688 26.5815 10.9185 26.25 11.25Z" fill="#469EFF"/>
</svg>
