<svg width="32" height="32" viewBox="0 0 32 32" fill="none" xmlns="http://www.w3.org/2000/svg">
<path d="M6.22307 0C2.78616 0 0 2.78617 0 6.2231V16.8912C0 20.3281 2.78616 23.1143 6.22307 23.1143H7.10512V19.5583H6.22307C4.7501 19.5583 3.55604 18.3643 3.55604 16.8912V6.2231C3.55604 4.75013 4.7501 3.55606 6.22307 3.55606H16.8911C18.3642 3.55606 19.5581 4.75013 19.5581 6.2231V16.8912C19.5581 18.3643 18.3642 19.5583 16.8911 19.5583H14.2122V23.1143H16.8911C20.328 23.1143 23.1142 20.3281 23.1142 16.8912V6.2231C23.1142 2.78617 20.328 0 16.8911 0H6.22307ZM12.4418 15.1087C12.4418 13.6358 13.6359 12.4417 15.1088 12.4417H17.7737V8.88569H15.1088C11.6719 8.88569 8.88576 11.6719 8.88576 15.1087V25.7769C8.88576 29.2138 11.6719 32 15.1088 32H25.7769C29.2138 32 32 29.2138 32 25.7769V15.1087C32 11.6719 29.2138 8.88569 25.7769 8.88569H24.8966V12.4417H25.7769C27.2498 12.4417 28.444 13.6358 28.444 15.1087V25.7769C28.444 27.25 27.2498 28.4439 25.7769 28.4439H15.1088C13.6359 28.4439 12.4418 27.25 12.4418 25.7769V15.1087Z" fill="#469EFF"/>
</svg>
