<svg width="13" height="13" viewBox="0 0 13 13" fill="none" xmlns="http://www.w3.org/2000/svg">
<path d="M9.45087 4.21268L7.29588 6.36768L9.45087 8.52267C9.56518 8.63698 9.62939 8.79201 9.62939 8.95367C9.62939 9.11532 9.56518 9.27036 9.45087 9.38466C9.33656 9.49897 9.18153 9.56319 9.01987 9.56319C8.85822 9.56319 8.70318 9.49897 8.58887 9.38466L6.43388 7.22967L4.27889 9.38467C4.16458 9.49897 4.00955 9.56319 3.84789 9.56319C3.68623 9.56319 3.5312 9.49897 3.41689 9.38467C3.30258 9.27036 3.23837 9.11532 3.23837 8.95367C3.23837 8.79201 3.30258 8.63698 3.41689 8.52267L5.57188 6.36768L3.41689 4.21268C3.30258 4.09838 3.23837 3.94334 3.23837 3.78168C3.23837 3.62003 3.30258 3.46499 3.41689 3.35069C3.5312 3.23638 3.68623 3.17216 3.84789 3.17216C4.00955 3.17216 4.16458 3.23638 4.27889 3.35069L6.43388 5.50568L8.58887 3.35069C8.70318 3.23638 8.85822 3.17216 9.01987 3.17216C9.18153 3.17216 9.33656 3.23638 9.45087 3.35069C9.56518 3.46499 9.62939 3.62003 9.6294 3.78168C9.62939 3.94334 9.56518 4.09838 9.45087 4.21268Z" fill="#F4F4F4"/>
</svg>
