<svg width="32" height="32" viewBox="0 0 32 32" fill="none" xmlns="http://www.w3.org/2000/svg">
<path d="M23.8667 27.2799C22.2134 27.2799 20.68 27.0799 19.32 26.6666C18.28 26.9866 17.2134 27.1599 16.1334 27.1733C13.1334 27.1866 10.2934 26.0799 8.16003 23.9733C6.0267 21.8666 4.81336 19.0666 4.77336 16.0666C4.73336 13.0666 5.8667 10.2399 7.97336 8.09326C10.0667 5.94659 12.88 4.74659 15.88 4.70659C18.8934 4.66659 21.7067 5.79992 23.8534 7.90659C26 9.99992 27.2 12.8133 27.24 15.8133C27.28 19.0133 25.9734 22.0266 23.6267 24.1866C24.2534 24.7866 24.8934 25.1599 25.3467 25.3866C25.76 25.5866 25.9734 26.0133 25.8934 26.4666C25.8 26.9199 25.4267 27.2533 24.96 27.2666C24.5867 27.2799 24.2267 27.2933 23.8667 27.2933V27.2799ZM19.3067 25.2666L19.5067 25.3333C20.7467 25.7199 22.1467 25.9333 23.6667 25.9466C23.1067 25.5599 22.5867 25.0933 22.1467 24.5599L21.7067 24.0399L22.2267 23.6133C24.5867 21.6933 25.92 18.8533 25.88 15.8266C25.8534 13.1866 24.7867 10.7066 22.8934 8.86659C21 7.02659 18.5067 6.01326 15.8667 6.05326C13.2267 6.07992 10.7467 7.14659 8.9067 9.03992C7.0667 10.9333 6.0667 13.4266 6.09336 16.0666C6.12003 18.7066 7.1867 21.1866 9.08003 23.0266C10.9734 24.8799 13.4934 25.9066 16.1067 25.8399C17.12 25.8399 18.1334 25.6666 19.0934 25.3466L19.2934 25.2799L19.3067 25.2666Z" fill="#1E1E1E"/>
<path d="M11.2133 17.2398C11.8024 17.2398 12.28 16.7622 12.28 16.1731C12.28 15.584 11.8024 15.1064 11.2133 15.1064C10.6242 15.1064 10.1467 15.584 10.1467 16.1731C10.1467 16.7622 10.6242 17.2398 11.2133 17.2398Z" fill="#1E1E1E"/>
<path d="M16 17.2398C16.5891 17.2398 17.0667 16.7622 17.0667 16.1731C17.0667 15.584 16.5891 15.1064 16 15.1064C15.4109 15.1064 14.9333 15.584 14.9333 16.1731C14.9333 16.7622 15.4109 17.2398 16 17.2398Z" fill="#1E1E1E"/>
<path d="M20.7733 17.2398C21.3624 17.2398 21.84 16.7622 21.84 16.1731C21.84 15.584 21.3624 15.1064 20.7733 15.1064C20.1842 15.1064 19.7067 15.584 19.7067 16.1731C19.7067 16.7622 20.1842 17.2398 20.7733 17.2398Z" fill="#1E1E1E"/>
</svg>
