<svg width="24" height="24" viewBox="0 0 24 24" fill="none" xmlns="http://www.w3.org/2000/svg">
<path d="M11.5227 3.20938C11.6687 2.74122 12.3313 2.74123 12.4773 3.20938L13.9978 8.08395C14.1933 8.71054 14.7734 9.13729 15.4298 9.13729H20.4343C20.9137 9.13729 21.1183 9.74667 20.736 10.036L16.618 13.1526C16.1136 13.5343 15.9029 14.1914 16.0912 14.7953L17.6475 19.7844C17.7923 20.2487 17.2562 20.6255 16.8684 20.332L12.9052 17.3326C12.3698 16.9274 11.6302 16.9274 11.0948 17.3326L7.1316 20.332C6.7438 20.6255 6.20773 20.2487 6.35254 19.7844L7.90877 14.7953C8.09713 14.1914 7.88642 13.5343 7.38202 13.1526L3.26399 10.036C2.88172 9.74667 3.08632 9.13729 3.56573 9.13729H8.57024C9.2266 9.13729 9.80674 8.71054 10.0022 8.08395L11.5227 3.20938Z" stroke="#C8C8C8"/>
</svg>
