<svg width="32" height="32" viewBox="0 0 32 32" fill="none" xmlns="http://www.w3.org/2000/svg">
<path d="M25.8533 7.54654C23.4 5.09321 19.4133 5.09321 16.9466 7.54654L16 8.49321L15.0533 7.54654C12.6 5.09321 8.61331 5.09321 6.14664 7.54654C3.69331 9.99988 3.69331 13.9865 6.14664 16.4532L7.09331 17.3999L16 26.3065L24.9066 17.3999L25.8533 16.4532C28.3066 13.9999 28.3066 10.0132 25.8533 7.54654Z" fill="white"/>
<path d="M16 27.24L5.68002 16.92C4.36001 15.6 3.64001 13.8534 3.64001 12C3.64001 10.1467 4.36001 8.38671 5.68002 7.08004C8.40001 4.36004 12.8133 4.37337 15.52 7.08004L16 7.56004L16.48 7.08004C19.2 4.36004 23.6133 4.36004 26.32 7.08004C29.04 9.80004 29.04 14.2134 26.32 16.92L16 27.24ZM10.6 6.37337C9.16001 6.37337 7.72001 6.92004 6.61335 8.01337C5.54668 9.08004 4.96001 10.4934 4.96001 11.9867C4.96001 13.48 5.54668 14.9067 6.61335 15.9734L16 25.36L25.3867 15.9734C27.5867 13.7734 27.5867 10.2134 25.3867 8.01337C23.1867 5.81337 19.6267 5.81337 17.4267 8.01337L16 9.44004L14.5733 8.01337C13.48 6.92004 12.04 6.37337 10.6 6.37337Z" fill="#1E1E1E"/>
</svg>
