<svg width="27" height="35" viewBox="0 0 27 35" fill="none" xmlns="http://www.w3.org/2000/svg">
<path d="M19.1331 3.2852C14.7528 -1.09507 7.66096 -1.09507 3.2807 3.2852C-0.297318 6.86322 -0.95516 12.2704 1.33926 16.5223C1.3874 16.6185 1.41949 16.7308 1.48367 16.8271L8.62366 28.556C8.62366 28.556 8.65575 28.588 8.65575 28.6041C8.73597 28.7324 8.83224 28.8448 8.92851 28.9571C8.9606 29.0052 9.00874 29.0534 9.04083 29.0854C9.1371 29.1817 9.23337 29.2619 9.32964 29.3422C9.39382 29.3903 9.458 29.4384 9.52218 29.4866C9.55427 29.5187 9.58636 29.5507 9.63449 29.5668C9.69867 29.5989 9.76285 29.631 9.82703 29.6631C9.90726 29.7112 9.98748 29.7433 10.0677 29.7754C10.164 29.8235 10.2763 29.8556 10.3886 29.8877C10.4688 29.9198 10.5491 29.9358 10.6453 29.9519C10.7576 29.9679 10.8539 29.984 10.9662 30C11.0625 30 11.1588 30 11.255 30C11.3513 30 11.4476 30 11.5438 30C11.6562 30 11.7524 29.9679 11.8647 29.9519C11.945 29.9358 12.0252 29.9198 12.1215 29.8877C12.2338 29.8556 12.33 29.8235 12.4424 29.7754C12.5226 29.7433 12.6028 29.6951 12.683 29.6631C12.7472 29.631 12.8114 29.6149 12.8756 29.5668C12.9077 29.5347 12.9397 29.5026 12.9879 29.4866C13.0521 29.4384 13.1162 29.3903 13.1804 29.3422C13.2767 29.2619 13.373 29.1817 13.4692 29.0854C13.5174 29.0373 13.5495 29.0052 13.5815 28.9571C13.6778 28.8448 13.7741 28.7324 13.8543 28.6041C13.8543 28.588 13.8864 28.572 13.8864 28.556L21.0264 16.8271C21.0906 16.7308 21.1227 16.6346 21.1708 16.5223C23.4492 12.2864 22.8074 6.87926 19.2294 3.2852H19.1331Z" fill="white"/>
<path d="M19.1331 3.2852C14.7528 -1.09507 7.66096 -1.09507 3.2807 3.2852C-0.297318 6.86322 -0.95516 12.2704 1.33926 16.5223C1.3874 16.6185 1.41949 16.7308 1.48367 16.8271L8.62366 28.556C8.62366 28.556 8.65575 28.588 8.65575 28.6041C8.73598 28.7324 8.83224 28.8448 8.92851 28.9571C8.9606 29.0052 9.00874 29.0534 9.04083 29.0854C9.1371 29.1817 9.23337 29.2619 9.32964 29.3422C9.39382 29.3903 9.458 29.4384 9.52218 29.4866C9.55427 29.5187 9.58636 29.5507 9.63449 29.5668C9.69867 29.5989 9.76285 29.631 9.82703 29.6631C9.90726 29.7112 9.98748 29.7433 10.0677 29.7754C10.164 29.8235 10.2763 29.8556 10.3886 29.8877C10.4688 29.9198 10.5491 29.9358 10.6453 29.9519C10.7576 29.9679 10.8539 29.984 10.9662 30C11.0625 30 11.1588 30 11.255 30C11.3513 30 11.4476 30 11.5438 30C11.6562 30 11.7524 29.9679 11.8647 29.9519C11.945 29.9358 12.0252 29.9198 12.1215 29.8877C12.2338 29.8556 12.33 29.8235 12.4424 29.7754C12.5226 29.7433 12.6028 29.6951 12.683 29.6631C12.7472 29.631 12.8114 29.6149 12.8756 29.5668C12.9077 29.5347 12.9397 29.5026 12.9879 29.4866C13.0521 29.4384 13.1162 29.3903 13.1804 29.3422C13.2767 29.2619 13.373 29.1817 13.4692 29.0854C13.5174 29.0373 13.5495 29.0052 13.5815 28.9571C13.6778 28.8448 13.7741 28.7324 13.8543 28.6041C13.8543 28.588 13.8864 28.572 13.8864 28.556L21.0264 16.8271C21.0906 16.7308 21.1227 16.6346 21.1708 16.5223C23.4492 12.2704 22.8074 6.87926 19.2294 3.2852H19.1331ZM10.7416 13.9551H4.17922V13.2651H7.03521V11.5483H4.98146V8.09868H9.93934V8.77256H5.79975V10.8905H10.0035V11.5644H7.8535V13.2812H10.7416V13.9711V13.9551ZM11.9289 11.8692L11.5278 11.2114C12.6509 10.8744 13.2767 10.0241 13.2767 9.12555V9.04533H11.7524V8.38749H13.2767V7.52106H14.111V8.38749H15.6353V9.04533H14.111V9.12555C14.111 9.95989 14.7368 10.7621 15.8439 11.083L15.4428 11.7248C14.6245 11.4842 14.0308 10.9707 13.7099 10.3289C13.373 11.0509 12.7793 11.5965 11.9289 11.8692ZM17.2077 14.8375H16.3734V13.0084H12.4263V12.3345H17.1917V14.8215L17.2077 14.8375ZM18.2346 10.1203H17.2077V11.9976H16.3734V7.55315H17.2077V9.4304H18.2346V10.1203Z" fill="#55E0A3"/>
</svg>
