<?xml version="1.0" encoding="UTF-8"?>
<svg id="Layer_1" data-name="Layer 1" xmlns="http://www.w3.org/2000/svg" width="55.2" height="72" viewBox="0 0 24 24">
  <defs>
    <style>
      .cls-1 {
        fill: #55e0a3;
      }

      .cls-1, .cls-2 {
        stroke-width: 0px;
      }

      .cls-2 {
        fill: #fff;
      }
    </style>
  </defs>
  <path class="cls-2" d="m16.94,4.7c-2.73-2.73-7.15-2.73-9.88,0-2.23,2.23-2.64,5.6-1.21,8.25.03.06.05.13.09.19l4.45,7.31s.02.02.02.03c.05.08.11.15.17.22.02.03.05.06.07.08.06.06.12.11.18.16.04.03.08.06.12.09.02.02.04.04.07.05.04.02.08.04.12.06.05.03.1.05.15.07.06.03.13.05.2.07.05.02.1.03.16.04.07.01.13.02.2.03.06,0,.12,0,.18,0,.06,0,.12,0,.18,0,.07,0,.13-.02.2-.03.05-.01.1-.02.16-.04.07-.02.13-.04.2-.07.05-.02.1-.05.15-.07.04-.02.08-.03.12-.06.02-.02.04-.04.07-.05.04-.03.08-.06.12-.09.06-.05.12-.1.18-.16.03-.03.05-.05.07-.08.06-.07.12-.14.17-.22,0-.01.02-.02.02-.03l4.45-7.31c.04-.06.06-.12.09-.19,1.42-2.64,1.02-6.01-1.21-8.25Z"/>
  <path class="cls-1" d="m16.94,4.7c-2.73-2.73-7.15-2.73-9.88,0-2.23,2.23-2.64,5.6-1.21,8.25.03.06.05.13.09.19l4.45,7.31s.02.02.02.03c.05.08.11.15.17.22.02.03.05.06.07.08.06.06.12.11.18.16.04.03.08.06.12.09.02.02.04.04.07.05.04.02.08.04.12.06.05.03.1.05.15.07.06.03.13.05.2.07.05.02.1.03.16.04.07.01.13.02.2.03.06,0,.12,0,.18,0,.06,0,.12,0,.18,0,.07,0,.13-.02.2-.03.05-.01.1-.02.16-.04.07-.02.13-.04.2-.07.05-.02.1-.05.15-.07.04-.02.08-.03.12-.06.02-.02.04-.04.07-.05.04-.03.08-.06.12-.09.06-.05.12-.1.18-.16.03-.03.05-.05.07-.08.06-.07.12-.14.17-.22,0-.01.02-.02.02-.03l4.45-7.31c.04-.06.06-.12.09-.19,1.42-2.65,1.02-6.01-1.21-8.25Zm-5.23,6.65h-4.09v-.43h1.78v-1.07h-1.28v-2.15h3.09v.42h-2.58v1.32h2.62v.42h-1.34v1.07h1.8v.43Zm.74-1.3l-.25-.41c.7-.21,1.09-.74,1.09-1.3v-.05h-.95v-.41h.95v-.54h.52v.54h.95v.41h-.95v.05c0,.52.39,1.02,1.08,1.22l-.25.4c-.51-.15-.88-.47-1.08-.87-.21.45-.58.79-1.11.96Zm3.29,1.85h-.52v-1.14h-2.46v-.42h2.97v1.55Zm.64-2.94h-.64v1.17h-.52v-2.77h.52v1.17h.64v.43Z"/>
</svg>