<svg width="32" height="32" viewBox="0 0 32 32" fill="none" xmlns="http://www.w3.org/2000/svg">
<path d="M25.8533 7.54703C23.4 5.0937 19.4133 5.0937 16.9466 7.54703L16 8.4937L15.0533 7.54703C12.6 5.0937 8.61331 5.0937 6.14664 7.54703C3.69331 10.0004 3.69331 13.987 6.14664 16.4537L7.09331 17.4004L16 26.307L24.9066 17.4004L25.8533 16.4537C28.3066 14.0004 28.3066 10.0137 25.8533 7.54703Z" fill="#469EFF"/>
<path d="M15.9999 27.24L5.67989 16.92C4.35989 15.6 3.63989 13.8534 3.63989 12C3.63989 10.1467 4.35989 8.38671 5.67989 7.08004C8.39989 4.36004 12.8132 4.37337 15.5199 7.08004L15.9999 7.56004L16.4799 7.08004C19.1999 4.36004 23.6132 4.36004 26.3199 7.08004C29.0399 9.80004 29.0399 14.2134 26.3199 16.92L15.9999 27.24ZM10.5999 6.37337C9.15989 6.37337 7.71989 6.92004 6.61323 8.01337C5.54656 9.08004 4.95989 10.4934 4.95989 11.9867C4.95989 13.48 5.54656 14.9067 6.61323 15.9734L15.9999 25.36L25.3866 15.9734C27.5866 13.7734 27.5866 10.2134 25.3866 8.01337C23.1866 5.81337 19.6266 5.81337 17.4266 8.01337L15.9999 9.44004L14.5732 8.01337C13.4799 6.92004 12.0399 6.37337 10.5999 6.37337Z" fill="#469EFF"/>
</svg>
