<svg width="10" height="16" viewBox="0 0 10 16" fill="none" xmlns="http://www.w3.org/2000/svg">
<path d="M1.80948 15.6834L8.90888 8.59103C8.99315 8.5066 9.05298 8.41513 9.08837 8.31662C9.12376 8.21812 9.14117 8.11258 9.14061 8C9.14061 7.88742 9.12292 7.78188 9.08752 7.68338C9.05213 7.58487 8.99258 7.4934 8.90888 7.40897L1.80948 0.295514C1.61286 0.0985048 1.36709 0 1.07216 0C0.777225 0 0.524428 0.105541 0.313764 0.316623C0.103099 0.527704 -0.00223255 0.773967 -0.00223255 1.05541C-0.00223255 1.33685 0.103099 1.58311 0.313764 1.7942L6.5073 8L0.313764 14.2058C0.117144 14.4028 0.0188332 14.6457 0.0188332 14.9345C0.0188332 15.2232 0.124166 15.4729 0.33483 15.6834C0.545495 15.8945 0.79127 16 1.07216 16C1.35304 16 1.59882 15.8945 1.80948 15.6834Z" fill="#469EFF"/>
</svg>
