<svg width="42" height="42" viewBox="0 0 42 42" fill="none" xmlns="http://www.w3.org/2000/svg">
<circle cx="21" cy="21" r="20.5" fill="white" stroke="#666666"/>
<path d="M27.8571 21.764H22.1429V27.4782C22.1429 27.7813 22.0225 28.072 21.8081 28.2864C21.5938 28.5007 21.3031 28.6211 21 28.6211C20.6969 28.6211 20.4062 28.5007 20.1919 28.2864C19.9776 28.072 19.8571 27.7813 19.8571 27.4782V21.764H14.1429C13.8398 21.764 13.5491 21.6435 13.3347 21.4292C13.1204 21.2149 13 20.9242 13 20.6211C13 20.318 13.1204 20.0273 13.3347 19.813C13.5491 19.5986 13.8398 19.4782 14.1429 19.4782H19.8571V13.764C19.8571 13.4608 19.9776 13.1702 20.1919 12.9558C20.4062 12.7415 20.6969 12.6211 21 12.6211C21.3031 12.6211 21.5938 12.7415 21.8081 12.9558C22.0225 13.1702 22.1429 13.4608 22.1429 13.764V19.4782H27.8571C28.1602 19.4782 28.4509 19.5986 28.6653 19.813C28.8796 20.0273 29 20.318 29 20.6211C29 20.9242 28.8796 21.2149 28.6653 21.4292C28.4509 21.6435 28.1602 21.764 27.8571 21.764Z" fill="#666666"/>
</svg>
