<svg width="24" height="24" viewBox="0 0 24 24" fill="none" xmlns="http://www.w3.org/2000/svg">
<path d="M11.5245 3.08156C11.6741 2.6209 12.3259 2.62091 12.4755 3.08156L13.9941 7.75532C14.1949 8.37336 14.7709 8.7918 15.4207 8.7918H20.335C20.8194 8.7918 21.0207 9.4116 20.6289 9.6963L16.6531 12.5848C16.1274 12.9668 15.9074 13.6439 16.1082 14.2619L17.6268 18.9357C17.7765 19.3963 17.2493 19.7794 16.8574 19.4947L12.8817 16.6061C12.3559 16.2242 11.6441 16.2242 11.1183 16.6061L7.14258 19.4947C6.75073 19.7794 6.22349 19.3963 6.37316 18.9357L7.89176 14.2619C8.09257 13.6439 7.87258 12.9668 7.34685 12.5848L3.37111 9.6963C2.97926 9.4116 3.18064 8.7918 3.66501 8.7918H8.57929C9.22913 8.7918 9.80506 8.37336 10.0059 7.75532L11.5245 3.08156Z" stroke="#C8C8C8"/>
<mask id="path-2-inside-1_254_68838" fill="white">
<path fill-rule="evenodd" clip-rule="evenodd" d="M12.001 2.23438C11.6003 2.23438 11.1996 2.4647 11.0499 2.92536L9.53132 7.59912C9.39744 8.01114 9.01349 8.2901 8.58026 8.2901H3.66598C2.69726 8.2901 2.29448 9.52972 3.07819 10.0991L7.05393 12.9877C7.40442 13.2423 7.55108 13.6937 7.4172 14.1057L5.89861 18.7795C5.59925 19.7008 6.65374 20.4669 7.43745 19.8975L11.4132 17.009C11.5884 16.8816 11.7947 16.818 12.001 16.818V2.23438Z"/>
</mask>
<path fill-rule="evenodd" clip-rule="evenodd" d="M12.001 2.23438C11.6003 2.23438 11.1996 2.4647 11.0499 2.92536L9.53132 7.59912C9.39744 8.01114 9.01349 8.2901 8.58026 8.2901H3.66598C2.69726 8.2901 2.29448 9.52972 3.07819 10.0991L7.05393 12.9877C7.40442 13.2423 7.55108 13.6937 7.4172 14.1057L5.89861 18.7795C5.59925 19.7008 6.65374 20.4669 7.43745 19.8975L11.4132 17.009C11.5884 16.8816 11.7947 16.818 12.001 16.818V2.23438Z" fill="#469EFF"/>
<path d="M11.0499 2.92536L10.0989 2.61634L10.0989 2.61634L11.0499 2.92536ZM12.001 2.23438H13.001V1.23437L12.001 1.23438L12.001 2.23438ZM9.53132 7.59912L10.4824 7.90814V7.90814L9.53132 7.59912ZM3.07819 10.0991L3.66598 9.2901H3.66598L3.07819 10.0991ZM7.05393 12.9877L6.46615 13.7967L6.46615 13.7967L7.05393 12.9877ZM7.4172 14.1057L6.46615 13.7967L6.46615 13.7967L7.4172 14.1057ZM5.89861 18.7795L6.84966 19.0885L5.89861 18.7795ZM7.43745 19.8975L6.84966 19.0885L6.84966 19.0885L7.43745 19.8975ZM11.4132 17.009L12.001 17.818L12.001 17.818L11.4132 17.009ZM12.001 16.818V17.818H13.001V16.818H12.001ZM12.001 3.23438C12.0032 3.22764 12.0049 3.22404 12.0055 3.22287C12.0061 3.2217 12.006 3.22213 12.0049 3.22361C12.0023 3.22706 11.9985 3.23075 11.9945 3.23344C11.991 3.23585 11.9894 3.23607 11.991 3.23562C11.9927 3.2351 11.9962 3.23438 12.001 3.23438L12.001 1.23438C11.2176 1.23438 10.3974 1.69752 10.0989 2.61634L12.001 3.23438ZM10.4824 7.90814L12.001 3.23438L10.0989 2.61634L8.58026 7.2901L10.4824 7.90814ZM8.58026 9.2901C9.44671 9.2901 10.2146 8.73218 10.4824 7.90814L8.58026 7.2901H8.58026V9.2901ZM3.66598 9.2901H8.58026V7.2901H3.66598V9.2901ZM3.66598 9.2901L3.66598 9.2901V7.2901C1.72853 7.2901 0.922983 9.76934 2.49041 10.9081L3.66598 9.2901ZM7.64172 12.1786L3.66598 9.2901L2.49041 10.9081L6.46615 13.7967L7.64172 12.1786ZM8.36826 14.4147C8.63601 13.5907 8.34269 12.6879 7.64172 12.1786L6.46615 13.7967L6.46615 13.7967L8.36826 14.4147ZM6.84966 19.0885L8.36826 14.4147L6.46615 13.7967L4.94755 18.4704L6.84966 19.0885ZM6.84966 19.0885H6.84966L4.94755 18.4704C4.34885 20.3131 6.45781 21.8453 8.02524 20.7065L6.84966 19.0885ZM10.8254 16.1999L6.84966 19.0885L8.02524 20.7065L12.001 17.818L10.8254 16.1999ZM12.001 15.818C11.5889 15.818 11.1758 15.9453 10.8254 16.1999L12.001 17.818L12.001 17.818V15.818ZM13.001 16.818V2.23438H11.001V16.818H13.001Z" fill="#469EFF" mask="url(#path-2-inside-1_254_68838)"/>
</svg>
