<svg width="32" height="32" viewBox="0 0 32 32" fill="none" xmlns="http://www.w3.org/2000/svg">
<path d="M23.1067 14.1069C24.9182 14.1069 26.3867 12.6384 26.3867 10.8269C26.3867 9.01538 24.9182 7.54688 23.1067 7.54688C21.2952 7.54688 19.8267 9.01538 19.8267 10.8269C19.8267 12.6384 21.2952 14.1069 23.1067 14.1069Z" fill="#1E1E1E"/>
<path d="M8.90671 14.1069C10.7182 14.1069 12.1867 12.6384 12.1867 10.8269C12.1867 9.01538 10.7182 7.54688 8.90671 7.54688C7.09521 7.54688 5.62671 9.01538 5.62671 10.8269C5.62671 12.6384 7.09521 14.1069 8.90671 14.1069Z" fill="#1E1E1E"/>
<path d="M15.9334 15.64C17.9584 15.64 19.6001 13.9984 19.6001 11.9733C19.6001 9.94826 17.9584 8.30664 15.9334 8.30664C13.9083 8.30664 12.2667 9.94826 12.2667 11.9733C12.2667 13.9984 13.9083 15.64 15.9334 15.64Z" fill="#1E1E1E"/>
<path d="M29.6934 19.9869C28.76 17.2403 26.16 15.2803 23.0934 15.2803C20.9734 15.2803 19.0934 16.2403 17.8134 17.7336C20.0134 18.3603 21.7867 20.0136 22.52 22.1736C22.52 22.2003 22.52 22.2403 22.5334 22.2669H28C29.1734 22.2669 30.08 21.1203 29.6934 20.0003V19.9869Z" fill="#1E1E1E"/>
<path d="M9.37333 22.1462C10.12 19.9596 11.9467 18.2796 14.2 17.6796C12.92 16.1729 11.0267 15.2129 8.90666 15.2129C5.84 15.2129 3.25333 17.1862 2.30666 19.9196C1.92 21.0396 2.82666 22.1862 4 22.1862H9.36C9.36 22.1862 9.36 22.1596 9.36 22.1462H9.37333Z" fill="#1E1E1E"/>
<path d="M15.9333 17.4805C12.8666 17.4805 10.2799 19.4538 9.33328 22.1871C8.94661 23.3071 9.85328 24.4538 11.0266 24.4538H20.8399C22.0133 24.4538 22.9199 23.3071 22.5333 22.1871C21.5999 19.4405 18.9999 17.4805 15.9333 17.4805Z" fill="#1E1E1E"/>
</svg>
