<svg width="32" height="32" viewBox="0 0 32 32" fill="none" xmlns="http://www.w3.org/2000/svg">
<path d="M25.0533 25.9871C24.3333 25.6537 23.4533 25.0804 22.6533 24.1337C25.0666 22.1737 26.5999 19.1737 26.5599 15.8137C26.4933 9.98708 21.7066 5.30708 15.8666 5.37375C10.0266 5.44042 5.35994 10.2271 5.42661 16.0671C5.49328 21.8937 10.2799 26.5737 16.1199 26.5071C17.2399 26.4937 18.3066 26.3071 19.3066 25.9737C20.6933 26.4137 22.5199 26.7204 24.9066 26.5871C25.2399 26.5737 25.3466 26.1204 25.0399 25.9737L25.0533 25.9871Z" fill="#469EFF"/>
<path d="M11.2267 17.2398C11.8158 17.2398 12.2934 16.7622 12.2934 16.1731C12.2934 15.584 11.8158 15.1064 11.2267 15.1064C10.6376 15.1064 10.16 15.584 10.16 16.1731C10.16 16.7622 10.6376 17.2398 11.2267 17.2398Z" fill="white"/>
<path d="M16 17.2398C16.5891 17.2398 17.0667 16.7622 17.0667 16.1731C17.0667 15.584 16.5891 15.1064 16 15.1064C15.4109 15.1064 14.9333 15.584 14.9333 16.1731C14.9333 16.7622 15.4109 17.2398 16 17.2398Z" fill="white"/>
<path d="M20.7733 17.2398C21.3624 17.2398 21.84 16.7622 21.84 16.1731C21.84 15.584 21.3624 15.1064 20.7733 15.1064C20.1842 15.1064 19.7067 15.584 19.7067 16.1731C19.7067 16.7622 20.1842 17.2398 20.7733 17.2398Z" fill="white"/>
</svg>
