<svg width="8" height="8" viewBox="0 0 8 8" fill="none" xmlns="http://www.w3.org/2000/svg">
<path fill-rule="evenodd" clip-rule="evenodd" d="M1.46592 0.535772C1.209 0.278848 0.792441 0.278848 0.535517 0.535772C0.278594 0.792696 0.278593 1.20925 0.535517 1.46618L3.14066 4.07132L0.53555 6.67644C0.278627 6.93336 0.278627 7.34992 0.53555 7.60684C0.792474 7.86376 1.20903 7.86376 1.46595 7.60684L4.07107 5.00173L6.67618 7.60684C6.9331 7.86376 7.34966 7.86376 7.60658 7.60684C7.86351 7.34992 7.86351 6.93336 7.60658 6.67644L5.00147 4.07132L7.60662 1.46618C7.86354 1.20925 7.86354 0.792696 7.60662 0.535772C7.34969 0.278848 6.93314 0.278848 6.67621 0.535772L4.07107 3.14092L1.46592 0.535772Z" fill="#469EFF"/>
</svg>
