<svg width="159" height="15" viewBox="0 0 159 15" fill="none" xmlns="http://www.w3.org/2000/svg">
<path d="M11.6814 6.49323C11.1099 6.49323 10.6921 6.35571 10.428 6.07931C10.1639 5.80292 10.0312 5.39434 10.0312 4.85357V1.81458C10.0312 1.27381 10.1639 0.865231 10.428 0.588837C10.6921 0.312444 11.1099 0.174915 11.6814 0.174915H15.1723C15.7439 0.174915 16.1617 0.312444 16.4258 0.588837C16.6898 0.865231 16.8225 1.27381 16.8225 1.81458V4.8549C16.8225 5.39567 16.6898 5.80425 16.4258 6.08065C16.1617 6.35704 15.7439 6.49457 15.1723 6.49457H11.6814V6.49323ZM13.9347 11.9036C13.7442 11.9036 13.6049 11.9717 13.5156 12.1066C13.4262 12.2414 13.3816 12.3896 13.3816 12.5512C13.3816 12.7021 13.4262 12.8423 13.5169 12.9718C13.6062 13.1013 13.7468 13.1654 13.9373 13.1654H20.2215C20.475 13.1654 20.6656 13.2442 20.793 13.4017C20.9204 13.5593 20.9835 13.7329 20.9835 13.9225C20.9835 14.1121 20.9204 14.2857 20.793 14.4432C20.6656 14.6008 20.475 14.6795 20.2215 14.6795H13.9045C13.5235 14.6795 13.1897 14.6208 12.9046 14.5046C12.6195 14.3871 12.383 14.2336 12.1978 14.0413C12.0125 13.8504 11.872 13.626 11.7774 13.371C11.6828 13.116 11.6341 12.8503 11.6341 12.5725C11.6341 12.2948 11.6814 12.0117 11.7774 11.7514C11.872 11.491 12.0125 11.2627 12.1978 11.0651C12.383 10.8688 12.6182 10.7139 12.9033 10.6017C13.1884 10.4896 13.5208 10.4335 13.9019 10.4335H18.4333C18.6133 10.4335 18.7473 10.3721 18.8367 10.2506C18.926 10.1291 18.972 9.99288 18.972 9.84333C18.972 9.69379 18.9273 9.55626 18.8367 9.42807C18.7473 9.29989 18.612 9.23714 18.4333 9.23714H12.6984C12.4553 9.23714 12.2701 9.15702 12.1439 8.99813C12.0178 8.8379 11.9534 8.66833 11.9534 8.48807C11.9534 8.29713 12.0165 8.12088 12.1439 7.96199C12.2701 7.80176 12.4553 7.72298 12.6984 7.72298H18.4806C18.8603 7.72298 19.1914 7.77906 19.4713 7.89122C19.7511 8.00338 19.9837 8.15426 20.1689 8.34654C20.3542 8.53747 20.4908 8.7618 20.5802 9.01682C20.6695 9.27185 20.7142 9.54291 20.7142 9.83132C20.7142 10.1197 20.6695 10.3707 20.5802 10.6218C20.4908 10.8715 20.3529 11.0931 20.1689 11.284C19.9837 11.475 19.7524 11.6272 19.4726 11.7394C19.1927 11.8515 18.863 11.9063 18.4832 11.9063H13.9386L13.9347 11.9036ZM11.8089 4.97775H15.0777V1.6904H11.8089V4.97775ZM20.6169 6.19014C20.6169 6.48789 20.5237 6.71088 20.3397 6.86042C20.1545 7.00997 19.9508 7.08341 19.7288 7.08341C19.5067 7.08341 19.3031 7.00863 19.1178 6.86042C18.9326 6.71221 18.8406 6.48789 18.8406 6.19014V2.02555C18.8406 1.35526 19.0022 0.850543 19.3241 0.510059C19.6473 0.169574 20.1624 0 20.8718 0H22.2842C22.5378 0 22.7283 0.0801139 22.8557 0.239007C22.9832 0.397899 23.0463 0.57415 23.0463 0.765088C23.0463 0.956026 22.9832 1.13228 22.8557 1.29117C22.7283 1.45006 22.5378 1.53018 22.2842 1.53018H21.1569C20.7969 1.53018 20.6169 1.70509 20.6169 2.05626V6.1888V6.19014Z" fill="#278278"/>
<path d="M26.0543 11.0103C26.0543 10.543 26.1305 10.0984 26.2843 9.67776C26.438 9.25717 26.6521 8.87796 26.9267 8.53614H25.6418C25.2713 8.53614 24.9454 8.46671 24.6656 8.32918C24.3857 8.19165 24.1519 8.00739 23.9679 7.77906C23.7827 7.55074 23.6421 7.29037 23.5475 6.99662C23.4529 6.7042 23.4043 6.40377 23.4043 6.09534C23.4043 5.7869 23.4516 5.50249 23.5475 5.21008C23.6421 4.91766 23.7827 4.65462 23.9679 4.41962C24.1532 4.18595 24.3857 3.99902 24.6656 3.86149C24.9454 3.72396 25.2713 3.65453 25.6418 3.65453H28.372C28.6255 3.65453 28.816 3.56106 28.9435 3.37547C29.0709 3.18987 29.134 2.9789 29.134 2.74524C29.134 2.51157 29.0709 2.31396 28.9435 2.12302C28.816 1.93208 28.6255 1.83594 28.372 1.83594H24.4685C24.2255 1.83594 24.0402 1.75583 23.9128 1.59694C23.7853 1.43671 23.7222 1.26714 23.7222 1.08688C23.7222 0.895941 23.7853 0.71969 23.9128 0.560798C24.0402 0.401905 24.2241 0.321791 24.4685 0.321791H28.6269C28.9974 0.321791 29.3193 0.391223 29.5952 0.528752C29.8698 0.667616 30.0997 0.850543 30.2849 1.07887C30.4702 1.30719 30.6081 1.56489 30.6975 1.8533C30.7868 2.14038 30.8328 2.43279 30.8328 2.73055C30.8328 3.02831 30.7881 3.32072 30.6988 3.6078C30.6095 3.89487 30.4715 4.1499 30.2876 4.37422C30.1023 4.59721 29.8737 4.7788 29.5991 4.91633C29.3245 5.05519 29.0026 5.12329 28.6334 5.12329H25.9269C25.6733 5.12329 25.4868 5.22209 25.3646 5.42104C25.2437 5.61999 25.1819 5.8363 25.1819 6.07264C25.1819 6.30897 25.2424 6.53997 25.3646 6.73224C25.4854 6.92585 25.6746 7.02199 25.9282 7.02199H30.3559C30.9694 7.02199 31.5383 7.12881 32.0626 7.34111C32.5868 7.55341 33.0388 7.84048 33.4198 8.201C33.8008 8.56151 34.0964 8.98344 34.3079 9.4668C34.5195 9.95015 34.6259 10.4669 34.6259 11.0197C34.6259 11.5725 34.5168 12.0892 34.3001 12.5725C34.0833 13.0559 33.7837 13.4778 33.4014 13.8383C33.0204 14.1989 32.5671 14.4833 32.0416 14.6902C31.5173 14.8972 30.9471 15 30.3322 15C29.7174 15 29.134 14.8959 28.615 14.6889C28.0961 14.4819 27.6454 14.1962 27.2631 13.8357C26.8821 13.4738 26.5851 13.0506 26.3723 12.5672C26.1608 12.0839 26.0543 11.5644 26.0543 11.0117V11.0103ZM27.8004 10.9703C27.8004 11.3228 27.8635 11.6512 27.991 11.9543C28.1184 12.2588 28.2931 12.5245 28.5152 12.7541C28.7372 12.9838 29.0013 13.1627 29.3087 13.2909C29.6149 13.4191 29.9538 13.4832 30.3243 13.4832C30.6949 13.4832 31.0194 13.4191 31.3321 13.2909C31.6435 13.1627 31.9115 12.9838 32.1335 12.7541C32.3556 12.5245 32.5303 12.2574 32.6577 11.9543C32.7852 11.6499 32.8483 11.3214 32.8483 10.9703C32.8483 10.6191 32.7852 10.2906 32.6577 9.9862C32.5303 9.68177 32.3556 9.41472 32.1335 9.1864C31.9115 8.95674 31.6474 8.77515 31.34 8.64162C31.0325 8.5081 30.7001 8.44134 30.3401 8.44134L29.9906 8.45736C29.6727 8.50009 29.3797 8.59356 29.1104 8.73776C28.841 8.88197 28.6071 9.06623 28.4127 9.29055C28.2169 9.51487 28.0658 9.77123 27.9607 10.0596C27.8543 10.3481 27.8018 10.6511 27.8018 10.9716L27.8004 10.9703ZM34.1174 4.9911C34.1174 5.3436 34.2974 5.52119 34.6574 5.52119H35.7847C36.0383 5.52119 36.2288 5.59996 36.3562 5.75752C36.4837 5.91508 36.5467 6.08866 36.5467 6.27826C36.5467 6.46787 36.4837 6.64145 36.3562 6.799C36.2288 6.95656 36.0383 7.03534 35.7847 7.03534H34.3723C33.6628 7.03534 33.1478 6.86443 32.8246 6.52395C32.5014 6.18346 32.3411 5.67607 32.3411 5.00445V0.895941C32.3411 0.598184 32.4331 0.373865 32.6183 0.224319C32.8036 0.074773 33.0072 0 33.2293 0C33.4513 0 33.655 0.074773 33.8402 0.224319C34.0255 0.373865 34.1174 0.598184 34.1174 0.898611V4.9911Z" fill="#278278"/>
<path d="M48.4626 10.579C48.7267 10.579 48.9225 10.6591 49.0499 10.818C49.1774 10.9769 49.2404 11.1531 49.2404 11.3441C49.2404 11.5457 49.1774 11.7273 49.0499 11.8862C48.9225 12.0451 48.7267 12.1252 48.4626 12.1252H37.6234C37.3698 12.1252 37.1793 12.0451 37.0518 11.8862C36.9244 11.7273 36.8613 11.5457 36.8613 11.3441C36.8613 11.1531 36.9244 10.9769 37.0518 10.818C37.1793 10.6591 37.3698 10.579 37.6234 10.579H48.4626ZM40.3378 6.19808C40.3378 6.47715 40.4061 6.69746 40.5441 6.85902C40.6807 7.02059 40.8712 7.1007 41.1156 7.1007H46.8295C47.0726 7.1007 47.2578 7.17948 47.3853 7.33704C47.5127 7.49459 47.5758 7.66817 47.5758 7.85778C47.5758 8.04738 47.5127 8.22096 47.3853 8.37852C47.2578 8.53607 47.0726 8.61485 46.8295 8.61485H40.8147C40.1381 8.61485 39.5928 8.41056 39.1803 8.00065C38.7677 7.59073 38.5615 7.00323 38.5615 6.2368V2.53421C38.5615 1.9921 38.6942 1.57951 38.9582 1.29778C39.2223 1.01605 39.6401 0.874512 40.2116 0.874512H46.7191C46.9727 0.874512 47.1632 0.957296 47.2907 1.12153C47.4181 1.2871 47.4812 1.46468 47.4812 1.65562C47.4812 1.84656 47.4181 2.02281 47.2907 2.1817C47.1632 2.34193 46.9727 2.42071 46.7191 2.42071H40.8476C40.5086 2.42071 40.3391 2.58361 40.3391 2.91074V3.98427H46.5602C46.8137 3.98427 47.0043 4.06171 47.1317 4.21793C47.2591 4.37416 47.3222 4.54373 47.3222 4.72532C47.3222 4.92961 47.2591 5.10987 47.1317 5.26609C47.0043 5.42231 46.8137 5.49976 46.5602 5.49976H40.3391V6.19274L40.3378 6.19808Z" fill="#278278"/>
<path d="M55.8743 0.303098C56.2238 0.303098 56.5273 0.364518 56.7875 0.48736C57.0463 0.610201 57.2631 0.77577 57.4378 0.984066C57.6126 1.19236 57.7439 1.42736 57.8346 1.68907C57.9239 1.95077 57.9699 2.21515 57.9699 2.4822C57.9699 2.74924 57.9253 3.02697 57.8346 3.28334C57.7439 3.5397 57.6126 3.76936 57.4378 3.97232C57.2631 4.17527 57.0463 4.33817 56.7875 4.46101C56.5286 4.58385 56.2238 4.64527 55.8743 4.64527H53.0969C52.8853 4.64527 52.7237 4.72272 52.6134 4.87627C52.5017 5.03116 52.4465 5.19806 52.4465 5.37832C52.4465 5.55857 52.5017 5.72414 52.6134 5.87235C52.725 6.0219 52.8853 6.09534 53.0969 6.09534H57.9686C58.2117 6.09534 58.3943 6.17545 58.5165 6.33434C58.6374 6.49324 58.6991 6.66949 58.6991 6.86042C58.6991 7.05136 58.6387 7.22494 58.5165 7.37849C58.3943 7.53338 58.2117 7.60949 57.9686 7.60949H52.8104C52.461 7.60949 52.1548 7.54807 51.8894 7.42656C51.6253 7.30372 51.4059 7.13949 51.2312 6.93253C51.0564 6.72557 50.9264 6.48789 50.8423 6.22218C50.7569 5.95647 50.7148 5.68542 50.7148 5.40769C50.7148 5.12996 50.7569 4.86025 50.8423 4.59453C50.9264 4.32882 51.0564 4.09249 51.2312 3.88419C51.4059 3.67589 51.6253 3.50899 51.8894 3.38214C52.1535 3.25396 52.461 3.19121 52.8104 3.19121H55.6195C55.831 3.19121 55.99 3.12177 56.0951 2.98424C56.2002 2.84672 56.254 2.68649 56.254 2.5049C56.254 2.3233 56.2015 2.16441 56.0951 2.02555C55.9886 1.88802 55.831 1.81859 55.6195 1.81859H51.7633C51.5202 1.81859 51.335 1.74114 51.2075 1.58492C51.0801 1.4287 51.017 1.25378 51.017 1.06017C51.017 0.877248 51.0801 0.705003 51.2075 0.54344C51.335 0.381876 51.5189 0.301763 51.7633 0.301763H55.8743V0.303098ZM62.0008 13.0372C62.0008 13.5793 61.8681 13.9892 61.604 14.2656C61.3386 14.542 60.9221 14.6809 60.3506 14.6809H54.7011C54.1295 14.6809 53.7117 14.542 53.4477 14.2656C53.1836 13.9892 53.0509 13.5793 53.0509 13.0372V9.55893C53.0509 9.26117 53.1415 9.03819 53.3228 8.88864C53.5041 8.74043 53.7078 8.66566 53.9312 8.66566C54.1545 8.66566 54.3608 8.74043 54.5473 8.88864C54.7339 9.03819 54.8272 9.26117 54.8272 9.55893V10.4842H60.239V9.55893C60.239 9.26117 60.3283 9.03819 60.5083 8.88864C60.6883 8.74043 60.8893 8.66566 61.1113 8.66566C61.3334 8.66566 61.537 8.74043 61.7223 8.88864C61.9075 9.03819 61.9995 9.26117 61.9995 9.55893V13.0372H62.0008ZM60.239 13.1641V11.9677H54.8272V13.1641H60.239ZM62.0008 7.0527C62.0008 7.35045 61.9075 7.57344 61.7236 7.72298C61.5383 7.87253 61.3347 7.94597 61.1127 7.94597C60.8906 7.94597 60.687 7.87119 60.5017 7.72298C60.3165 7.57344 60.2232 7.35045 60.2232 7.0527V0.89327C60.2232 0.595514 60.3165 0.37253 60.5017 0.222984C60.687 0.074773 60.8906 0 61.1127 0C61.3347 0 61.5383 0.074773 61.7236 0.222984C61.9089 0.37253 62.0008 0.595514 62.0008 0.89327V7.0527Z" fill="#278278"/>
<path d="M1.02268 8.42411C1.53787 8.42411 1.95551 7.99967 1.95551 7.47609C1.95551 6.95252 1.53787 6.52808 1.02268 6.52808C0.507488 6.52808 0.0898438 6.95252 0.0898438 7.47609C0.0898438 7.99967 0.507488 8.42411 1.02268 8.42411Z" fill="#278278"/>
<path d="M7.08127 8.36673C7.59646 8.36673 8.01411 7.94229 8.01411 7.41872C8.01411 6.89514 7.59646 6.4707 7.08127 6.4707C6.56608 6.4707 6.14844 6.89514 6.14844 7.41872C6.14844 7.94229 6.56608 8.36673 7.08127 8.36673Z" fill="#278278"/>
<path d="M0.932834 12.0293C1.44802 12.0293 1.86567 11.6049 1.86567 11.0813C1.86567 10.5577 1.44802 10.1333 0.932834 10.1333C0.417644 10.1333 0 10.5577 0 11.0813C0 11.6049 0.417644 12.0293 0.932834 12.0293Z" fill="#278278"/>
<path d="M7.08127 4.93509C7.59646 4.93509 8.01411 4.51065 8.01411 3.98708C8.01411 3.4635 7.59646 3.03906 7.08127 3.03906C6.56608 3.03906 6.14844 3.4635 6.14844 3.98708C6.14844 4.51065 6.56608 4.93509 7.08127 4.93509Z" fill="#278278"/>
<path d="M4.04416 8.42411C4.55935 8.42411 4.977 7.99967 4.977 7.47609C4.977 6.95252 4.55935 6.52808 4.04416 6.52808C3.52897 6.52808 3.11133 6.95252 3.11133 7.47609C3.11133 7.99967 3.52897 8.42411 4.04416 8.42411Z" fill="#278278"/>
<path d="M1.95683 2.45166H0.0898438V7.41873H1.95683V2.45166Z" fill="#278278"/>
<path d="M4.97831 2.45166H3.11133V7.41873H4.97831V2.45166Z" fill="#278278"/>
<path d="M4.97831 7.47632H3.11133V12.4888H4.97831V7.47632Z" fill="#278278"/>
<path d="M8.0037 7.47632H6.13672V12.4888H8.0037V7.47632Z" fill="#278278"/>
<path d="M2.53556 0.0253906C1.18623 0.0253906 0.0917969 1.13764 0.0917969 2.50892H1.95878C1.95878 2.18446 2.21761 1.92276 2.53556 1.92276C2.85351 1.92276 3.11234 2.1858 3.11234 2.50892H4.97932C4.97932 1.13764 3.88488 0.0253906 2.53556 0.0253906Z" fill="#278278"/>
<path d="M6.13187 12.4431C6.13187 12.7676 5.87304 13.0293 5.55509 13.0293C5.23714 13.0293 4.97831 12.7662 4.97831 12.4431H3.11133C3.11133 13.8144 4.20577 14.9266 5.55509 14.9266C6.90442 14.9266 7.99885 13.8144 7.99885 12.4431H6.13187Z" fill="#278278"/>
<path d="M70 7.2915H80" stroke="#278278" stroke-width="3.03"/>
<path d="M75 2.5V12.5" stroke="#278278" stroke-width="3.03"/>
<path d="M110.476 4.33911H105.304C105.116 4.33911 104.937 4.40969 104.804 4.53762C104.671 4.66556 104.598 4.8376 104.598 5.01847C104.598 5.19934 104.671 5.37138 104.804 5.49931C104.937 5.62724 105.116 5.69783 105.304 5.69783H107.179V10.9474C107.179 11.1283 107.252 11.3003 107.385 11.4283C107.518 11.5562 107.697 11.6268 107.885 11.6268C108.073 11.6268 108.252 11.5562 108.385 11.4283C108.518 11.3003 108.591 11.1283 108.591 10.9474V5.69783H110.466C110.654 5.69783 110.833 5.62724 110.966 5.49931C111.099 5.37138 111.172 5.19934 111.172 5.01847C111.172 4.8376 111.099 4.66556 110.966 4.53762C110.833 4.40969 110.654 4.33911 110.466 4.33911H110.476Z" fill="#278278"/>
<path d="M118.089 6.75657C118.089 6.11691 117.823 5.50372 117.351 5.04935C116.879 4.59497 116.242 4.34352 115.577 4.33911H112.61C112.422 4.33911 112.244 4.40969 112.111 4.53762C111.978 4.66556 111.904 4.8376 111.904 5.01847V10.9518C111.904 11.1327 111.978 11.3047 112.111 11.4327C112.244 11.5606 112.422 11.6312 112.61 11.6312C112.798 11.6312 112.977 11.5606 113.11 11.4327C113.243 11.3047 113.316 11.1327 113.316 10.9518V9.16961H115.05L116.815 11.3665C116.87 11.4371 116.943 11.4988 117.021 11.5429C117.104 11.5871 117.191 11.6179 117.282 11.6312C117.374 11.6444 117.47 11.6356 117.562 11.6135C117.654 11.5915 117.736 11.5518 117.81 11.4944C117.883 11.4371 117.947 11.3709 117.993 11.2915C118.039 11.2121 118.071 11.1283 118.08 11.0356C118.089 10.9474 118.08 10.8548 118.057 10.7665C118.03 10.6783 117.988 10.5989 117.929 10.5283L116.645 8.92698C117.072 8.72406 117.434 8.41967 117.69 8.03146C117.943 7.64767 118.08 7.20212 118.085 6.74333L118.089 6.75657ZM115.581 7.81089H115.407V7.81972H115.398V7.81089H113.326V5.70665H115.581C115.87 5.70665 116.15 5.81693 116.356 6.01545C116.563 6.21396 116.677 6.47865 116.677 6.76098C116.677 7.04331 116.563 7.30799 116.356 7.50651C116.15 7.70502 115.875 7.8153 115.581 7.8153" fill="#278278"/>
<path d="M119.833 4.33911C119.645 4.33911 119.466 4.40969 119.333 4.53762C119.2 4.66556 119.127 4.8376 119.127 5.01847V10.9518C119.127 11.1327 119.2 11.3047 119.333 11.4327C119.466 11.5606 119.645 11.6312 119.833 11.6312C120.021 11.6312 120.2 11.5606 120.333 11.4327C120.466 11.3047 120.539 11.1327 120.539 10.9518V5.01847C120.539 4.8376 120.466 4.66556 120.333 4.53762C120.2 4.40969 120.021 4.33911 119.833 4.33911Z" fill="#278278"/>
<path d="M125.371 4.33915H122.831C122.643 4.33915 122.464 4.40973 122.331 4.53766C122.198 4.66559 122.125 4.83763 122.125 5.0185V10.9519C122.125 11.1327 122.198 11.3048 122.331 11.4327C122.464 11.5606 122.643 11.6312 122.831 11.6312C123.019 11.6312 123.198 11.5606 123.331 11.4327C123.464 11.3048 123.537 11.1327 123.537 10.9519V9.50932H125.371C126.077 9.5005 126.751 9.22258 127.246 8.73732C127.742 8.25207 128.021 7.59918 128.021 6.91982C128.021 6.24046 127.742 5.58757 127.246 5.10232C126.751 4.61706 126.077 4.34356 125.371 4.33032V4.33915ZM125.371 8.1506H123.537V5.70668H125.371C125.536 5.70668 125.701 5.73756 125.857 5.79932C126.013 5.86108 126.151 5.94931 126.27 6.06401C126.389 6.1787 126.481 6.31105 126.545 6.46103C126.609 6.61102 126.641 6.76983 126.641 6.92864C126.641 7.08745 126.609 7.24627 126.545 7.39625C126.481 7.54624 126.389 7.67858 126.27 7.79328C126.151 7.90798 126.013 7.99621 125.857 8.05797C125.701 8.11973 125.536 8.1506 125.371 8.1506Z" fill="#278278"/>
<path d="M134.538 9.64604C134.538 9.31519 134.451 8.98874 134.282 8.69759C134.112 8.40644 133.869 8.16381 133.576 7.99176C132.984 7.64767 132.333 7.41387 131.65 7.30358C130.261 7.01243 130.261 6.51394 130.311 6.15661C130.366 5.764 130.715 5.53461 131.636 5.57872C131.673 5.58313 131.71 5.58754 131.746 5.58754C132.241 5.65371 132.718 5.81252 133.154 6.05074C133.319 6.13456 133.516 6.14779 133.695 6.09485C133.874 6.04192 134.02 5.9184 134.107 5.75959C134.195 5.60078 134.208 5.41109 134.153 5.23904C134.098 5.067 133.97 4.92142 133.805 4.84201C133.2 4.51116 132.53 4.29941 131.838 4.22442H131.81C131.691 4.21559 131.577 4.21118 131.467 4.21118C129.944 4.21118 128.899 4.9126 128.862 6.42571C128.853 6.76098 128.936 7.09183 129.11 7.3874C129.28 7.67855 129.532 7.92118 129.834 8.08881C130.302 8.35791 130.82 8.54319 131.357 8.64024H131.361C133.126 8.99315 133.126 9.46959 133.126 9.64604C133.126 9.74751 133.108 9.84897 133.071 9.94161C133.03 10.0342 132.975 10.1181 132.897 10.1886C132.585 10.4269 132.196 10.5416 131.801 10.5107H131.714C130.994 10.4798 130.302 10.2504 129.72 9.84014C129.564 9.73868 129.371 9.70339 129.188 9.74309C129.004 9.77838 128.844 9.88426 128.739 10.0387C128.633 10.1886 128.596 10.3739 128.638 10.5504C128.674 10.7268 128.784 10.8812 128.945 10.9827C129.747 11.5297 130.701 11.8429 131.687 11.8738H131.806C132.186 11.8959 132.567 11.8429 132.925 11.7238C133.282 11.6047 133.612 11.415 133.897 11.168C134.107 10.9695 134.273 10.7357 134.387 10.471C134.502 10.2107 134.557 9.92837 134.557 9.64604H134.538Z" fill="#278278"/>
<path d="M139.191 4.14943C138.397 4.14943 137.623 4.37441 136.962 4.80232C136.302 5.22582 135.789 5.83018 135.486 6.536C135.183 7.24183 135.105 8.01824 135.257 8.76818C135.413 9.51812 135.793 10.2063 136.352 10.7445C136.912 11.2827 137.627 11.6532 138.407 11.8032C139.186 11.9532 139.993 11.8738 140.727 11.5827C141.46 11.2915 142.088 10.793 142.528 10.1578C142.969 9.52253 143.202 8.777 143.202 8.00942C143.202 6.98597 142.776 6.00222 142.024 5.27875C141.272 4.55528 140.254 4.14502 139.191 4.14502V4.14943ZM139.191 10.5107C138.677 10.5107 138.177 10.3651 137.746 10.0872C137.32 9.81368 136.985 9.42107 136.793 8.96669C136.595 8.50791 136.545 8.00942 136.646 7.52416C136.747 7.03891 136.994 6.59335 137.357 6.24485C137.719 5.89635 138.182 5.65813 138.686 5.56108C139.191 5.46403 139.713 5.51256 140.185 5.70225C140.658 5.89194 141.066 6.20956 141.35 6.62423C141.634 7.03449 141.786 7.51975 141.786 8.01383C141.786 8.67554 141.511 9.31078 141.025 9.7828C140.539 10.2504 139.878 10.5151 139.191 10.5151V10.5107Z" fill="#278278"/>
<path d="M147.718 4.34352H144.907C144.719 4.34352 144.54 4.41411 144.407 4.54204C144.275 4.66997 144.201 4.84201 144.201 5.02288V10.9562C144.201 11.1371 144.275 11.3091 144.407 11.4371C144.54 11.565 144.719 11.6356 144.907 11.6356H147.718C149.735 11.6135 151.248 10.0519 151.248 7.98735C151.248 5.92281 149.735 4.36117 147.718 4.33911V4.34352ZM147.672 10.2725H145.618V5.70224H147.677C148.928 5.70224 149.836 6.66393 149.836 7.98735C149.836 9.31077 148.928 10.2725 147.677 10.2725" fill="#278278"/>
<path d="M158.934 10.6474L155.807 4.72287C155.807 4.72287 155.821 4.75816 155.83 4.78022C155.807 4.72287 155.775 4.66552 155.734 4.617C155.72 4.59935 155.711 4.58612 155.692 4.56847C155.637 4.51112 155.573 4.4626 155.504 4.42731C155.504 4.42731 155.5 4.42289 155.495 4.41848C155.486 4.41848 155.477 4.41407 155.468 4.40966C155.404 4.37878 155.33 4.36113 155.257 4.35231C155.239 4.35231 155.22 4.3479 155.202 4.3479C155.193 4.3479 155.184 4.3479 155.17 4.3479C155.101 4.3479 155.028 4.36113 154.959 4.37878C154.95 4.37878 154.941 4.3876 154.927 4.39201C154.858 4.41407 154.794 4.44936 154.734 4.49348C154.72 4.5023 154.711 4.51112 154.698 4.51995C154.638 4.57288 154.583 4.63464 154.546 4.70523C154.546 4.70964 154.537 4.71405 154.532 4.71846L151.406 10.6474C151.364 10.7268 151.337 10.815 151.328 10.9033C151.318 10.9915 151.328 11.0841 151.36 11.1679C151.392 11.2518 151.433 11.3312 151.493 11.4017C151.552 11.4723 151.626 11.5253 151.713 11.5694C151.795 11.6091 151.887 11.6356 151.979 11.64C152.07 11.6488 152.167 11.64 152.254 11.6091C152.341 11.5826 152.423 11.5341 152.497 11.4767C152.566 11.4194 152.625 11.3444 152.666 11.265L153.162 10.321H157.164L157.659 11.265C157.742 11.4282 157.893 11.5473 158.072 11.6047C158.251 11.662 158.443 11.6444 158.613 11.565C158.783 11.4812 158.906 11.34 158.966 11.1679C159.026 10.9959 159.007 10.8106 158.925 10.6474H158.934ZM155.867 5.16842C155.853 5.22577 155.835 5.27871 155.807 5.32723C155.835 5.27871 155.853 5.22136 155.867 5.16842ZM155.88 5.05373V5.0449C155.88 5.0449 155.88 5.01844 155.88 5.0052C155.88 5.02285 155.88 5.03608 155.88 5.05373ZM155.857 4.83757C155.867 4.86404 155.871 4.89492 155.876 4.92138C155.876 4.89492 155.867 4.86404 155.857 4.83757ZM156.458 8.95783H153.895L155.179 6.52714L156.463 8.95783H156.458Z" fill="#278278"/>
<path d="M91.3604 2.95404C91.6492 3.07315 91.9702 3.10403 92.2819 3.04668C92.5937 2.98934 92.878 2.84376 93.1026 2.63201C93.3273 2.42026 93.4832 2.14676 93.5428 1.84678C93.607 1.5468 93.5749 1.23801 93.4557 0.960086C93.3777 0.774807 93.2631 0.602762 93.1164 0.457185C92.9697 0.311608 92.7954 0.201323 92.6029 0.121918C92.2132 -0.0368932 91.773 -0.0413046 91.3787 0.113095C90.9844 0.267494 90.6726 0.563059 90.5076 0.938029C90.3425 1.313 90.3379 1.73649 90.4984 2.11588C90.6589 2.49526 90.9661 2.79523 91.3558 2.95404H91.3604ZM91.1816 1.21154C91.2595 1.03508 91.397 0.885092 91.5759 0.796864C91.7547 0.708636 91.9564 0.677756 92.1536 0.717458C92.3507 0.757161 92.5249 0.858624 92.6533 1.00861C92.7817 1.1586 92.8505 1.34829 92.8459 1.53798C92.8459 1.73208 92.7725 1.91736 92.6441 2.06735C92.5158 2.21734 92.337 2.3188 92.1398 2.35409C91.9427 2.38938 91.7363 2.3585 91.5621 2.26586C91.3879 2.17322 91.2457 2.02324 91.1724 1.84678C91.1311 1.74532 91.1082 1.63503 91.1082 1.52916C91.1082 1.42328 91.1311 1.313 91.177 1.21154H91.1816Z" fill="#278278"/>
<path d="M93.9508 13.8856C92.7908 13.8856 91.6721 13.4797 90.7964 12.7474C89.9253 12.0107 89.3567 10.9961 89.2009 9.88882C89.045 8.78155 89.3109 7.65664 89.9528 6.72584C90.5901 5.79503 91.5621 5.11567 92.6808 4.82011C92.7633 4.39661 92.9055 3.98194 93.1026 3.59814C92.016 3.74813 90.9981 4.18486 90.1545 4.85981C89.3109 5.53475 88.6782 6.41704 88.3205 7.41402C87.9675 8.411 87.9033 9.48297 88.1417 10.5152C88.3802 11.5431 88.9074 12.4916 89.6685 13.2503C90.4296 14.0091 91.3924 14.5517 92.4516 14.8164C93.5107 15.0811 94.6294 15.059 95.6748 14.7546C96.7247 14.4502 97.6646 13.8679 98.3936 13.0827C99.1226 12.293 99.6132 11.3269 99.8058 10.2903C99.4023 10.4358 98.9759 10.5329 98.5449 10.577C98.2515 11.5299 97.6463 12.368 96.8164 12.9636C95.9865 13.5591 94.9824 13.8811 93.9508 13.8856Z" fill="#278278"/>
<path d="M98.0438 0.990967C97.4661 0.990967 96.8884 1.09243 96.3473 1.28653C96.4115 1.40123 96.4299 1.52916 96.4069 1.65709C96.3748 1.80708 96.2786 1.93942 96.1456 2.02324C96.0126 2.10705 95.8476 2.13793 95.6917 2.10705C95.6046 2.08941 95.5221 2.05412 95.4533 2.00118C95.3845 1.94824 95.3249 1.88207 95.2882 1.80708C94.738 2.15558 94.2658 2.60554 93.8944 3.13491C93.8027 3.27167 93.7156 3.40842 93.6331 3.554C93.2892 4.17601 93.0966 4.85978 93.0554 5.56119C93.0554 5.64059 93.0508 5.72441 93.0508 5.80382C93.0508 7.07872 93.578 8.30068 94.5134 9.20061C95.4487 10.1005 96.7187 10.6078 98.0392 10.6078C98.2042 10.6078 98.3739 10.599 98.5389 10.5814C98.6536 10.2064 98.7223 9.8182 98.7315 9.42559C98.7315 9.37265 98.7315 9.32412 98.7315 9.2756C98.7315 8.80799 98.6581 8.34038 98.5114 7.89483C98.4931 7.83307 98.4702 7.74043 98.4702 7.74043C98.4702 7.71396 98.4656 7.6919 98.4656 7.66543C98.4656 7.53309 98.5114 7.40516 98.5985 7.30811C98.6856 7.20665 98.8049 7.14048 98.9424 7.11842C99.0754 7.09636 99.2129 7.11842 99.3321 7.18459C99.4513 7.25076 99.5384 7.35222 99.5889 7.47574C99.5935 7.49339 99.6026 7.51103 99.6072 7.52427C99.7723 8.01393 99.8686 8.52125 99.8915 9.03297C99.8915 9.11679 99.8961 9.20061 99.8961 9.28001C99.8961 9.6241 99.864 9.96378 99.7998 10.299C100.891 9.90202 101.808 9.14767 102.381 8.16833C102.954 7.189 103.156 6.04644 102.945 4.93918C102.734 3.83192 102.129 2.83053 101.23 2.11147C100.332 1.39241 99.2037 0.995378 98.0346 0.995378L98.0438 0.990967ZM97.8558 3.38636C97.8649 3.35107 97.8833 3.31578 97.9108 3.28931C97.9383 3.26284 97.975 3.2452 98.0117 3.24079C98.0483 3.23196 98.0896 3.24079 98.1263 3.25402C98.163 3.26726 98.1905 3.29372 98.2134 3.3246C98.2363 3.35548 98.2455 3.39078 98.2455 3.43048C98.2455 3.46577 98.2317 3.50547 98.2134 3.53635C98.1905 3.56723 98.163 3.58929 98.1263 3.60693C98.0896 3.62017 98.0529 3.62458 98.0117 3.61576C97.9887 3.61135 97.9612 3.60252 97.9429 3.58929C97.9246 3.57605 97.9016 3.55841 97.8879 3.53635C97.8741 3.51429 97.8649 3.49224 97.8604 3.47018C97.8558 3.44812 97.8558 3.42165 97.8604 3.39519L97.8558 3.38636ZM96.141 2.98493C96.1548 2.91434 96.196 2.84817 96.2511 2.79523C96.3061 2.7423 96.3748 2.70701 96.4528 2.69377C96.5262 2.68054 96.6087 2.68936 96.6775 2.71583C96.7462 2.74671 96.8104 2.79523 96.8517 2.85699C96.8929 2.91875 96.9159 2.99375 96.9159 3.06433C96.9159 3.13932 96.8929 3.20991 96.8471 3.27167C96.8058 3.33343 96.7416 3.38195 96.6729 3.40842C96.5995 3.43489 96.5216 3.44371 96.4482 3.42607C96.3978 3.41724 96.3519 3.39519 96.3061 3.36872C96.2648 3.34225 96.2281 3.30696 96.2006 3.26284C96.1731 3.21873 96.1548 3.17462 96.1456 3.12609C96.1364 3.07756 96.1364 3.02904 96.1456 2.98051L96.141 2.98493ZM99.6622 5.01417L98.7132 5.8347L98.6031 5.92734C98.6031 5.92734 98.5802 5.94498 98.5664 5.94498C98.5527 5.94498 98.5389 5.94498 98.5252 5.94498L96.7187 5.39356L98.1538 6.34201C98.1538 6.34201 98.1721 6.35966 98.1813 6.36848C98.1859 6.38171 98.1905 6.39054 98.1905 6.40377L98.2088 7.14489L98.218 7.50221L97.9429 6.96843C97.9429 6.96843 97.9246 6.94637 97.9154 6.93755C97.9062 6.92873 97.8879 6.92432 97.8741 6.92432C97.8604 6.92432 97.8466 6.92432 97.8329 6.93314C97.8191 6.93755 97.8099 6.94637 97.8008 6.95961L96.8975 8.13745C96.8975 8.13745 96.8792 8.1551 96.8654 8.16392C96.8517 8.16833 96.8379 8.17275 96.8242 8.17275C96.8104 8.17275 96.7967 8.16833 96.7875 8.15951C96.7737 8.15069 96.7646 8.14187 96.76 8.12863L94.8435 4.73626L94.573 4.25982L94.5042 4.1363C94.5042 4.1363 94.495 4.10984 94.495 4.09219C94.495 4.07896 94.4996 4.06131 94.5088 4.05249C94.518 4.03925 94.5317 4.03043 94.5455 4.02602C94.5592 4.02161 94.5776 4.0172 94.5913 4.02161L94.6876 4.03925L97.191 4.46716L99.6256 4.88183C99.6256 4.88183 99.6577 4.89066 99.6668 4.89948C99.6806 4.9083 99.6852 4.92154 99.6897 4.93918C99.6897 4.95241 99.6897 4.97006 99.6897 4.98329C99.6852 4.99653 99.676 5.00976 99.6622 5.023" fill="#278278"/>
</svg>
