<svg width="14" height="14" viewBox="0 0 14 14" fill="none" xmlns="http://www.w3.org/2000/svg">
<path d="M12.1875 7.5H7.5V12.1875C7.5 12.4361 7.40123 12.6746 7.22541 12.8504C7.0496 13.0262 6.81114 13.125 6.5625 13.125C6.31386 13.125 6.0754 13.0262 5.89959 12.8504C5.72377 12.6746 5.625 12.4361 5.625 12.1875V7.5H0.9375C0.68886 7.5 0.450403 7.40123 0.274588 7.22541C0.0987722 7.0496 0 6.81114 0 6.5625C0 6.31386 0.0987722 6.0754 0.274588 5.89959C0.450403 5.72377 0.68886 5.625 0.9375 5.625H5.625V0.9375C5.625 0.68886 5.72377 0.450402 5.89959 0.274587C6.0754 0.0987718 6.31386 0 6.5625 0C6.81114 0 7.0496 0.0987718 7.22541 0.274587C7.40123 0.450402 7.5 0.68886 7.5 0.9375V5.625H12.1875C12.4361 5.625 12.6746 5.72377 12.8504 5.89959C13.0262 6.0754 13.125 6.31386 13.125 6.5625C13.125 6.81114 13.0262 7.0496 12.8504 7.22541C12.6746 7.40123 12.4361 7.5 12.1875 7.5Z" fill="white"/>
</svg>
