<svg width="23" height="23" viewBox="0 0 23 23" fill="none" xmlns="http://www.w3.org/2000/svg">
<path d="M16.9706 7.27287L12.93 11.3135L16.9706 15.3541C17.1849 15.5684 17.3053 15.8591 17.3053 16.1622C17.3053 16.4653 17.1849 16.756 16.9706 16.9703C16.7562 17.1847 16.4655 17.3051 16.1624 17.3051C15.8593 17.3051 15.5686 17.1847 15.3543 16.9703L11.3137 12.9297L7.2731 16.9703C7.05877 17.1847 6.76808 17.3051 6.46498 17.3051C6.16187 17.3051 5.87118 17.1847 5.65685 16.9703C5.44253 16.756 5.32212 16.4653 5.32212 16.1622C5.32212 15.8591 5.44253 15.5684 5.65685 15.3541L9.69747 11.3135L5.65685 7.27287C5.44253 7.05854 5.32212 6.76785 5.32212 6.46474C5.32212 6.16164 5.44253 5.87095 5.65685 5.65662C5.87118 5.44229 6.16187 5.32189 6.46498 5.32189C6.76808 5.32189 7.05877 5.44229 7.2731 5.65662L11.3137 9.69723L15.3543 5.65662C15.5686 5.44229 15.8593 5.32189 16.1624 5.32189C16.4655 5.32189 16.7562 5.44229 16.9706 5.65662C17.1849 5.87095 17.3053 6.16164 17.3053 6.46474C17.3053 6.76785 17.1849 7.05854 16.9706 7.27287Z" fill="#469EFF"/>
</svg>
