<svg width="24" height="24" viewBox="0 0 24 24" fill="none" xmlns="http://www.w3.org/2000/svg">
<path d="M11.9998 21.85C11.9198 21.85 11.8498 21.85 11.7698 21.84C11.6898 21.84 11.6098 21.82 11.5198 21.8C11.4498 21.79 11.3898 21.77 11.3298 21.75C11.2398 21.72 11.1598 21.7 11.0798 21.66C11.0098 21.63 10.9498 21.6 10.8898 21.57C10.8298 21.54 10.7898 21.52 10.7498 21.5L10.6498 21.43C10.6498 21.43 10.5598 21.36 10.5098 21.32C10.4298 21.26 10.3598 21.2 10.2898 21.12L10.1998 21.02C10.1198 20.93 10.0498 20.84 9.98983 20.74L5.50983 13.39C5.46983 13.33 5.43983 13.27 5.41983 13.2C3.85983 10.29 4.38983 6.65999 6.70983 4.33999C8.11983 2.92999 9.99983 2.14999 11.9998 2.14999C13.9998 2.14999 15.8798 2.92999 17.2898 4.33999C19.6098 6.65999 20.1398 10.29 18.5898 13.17C18.5498 13.25 18.5198 13.32 18.4898 13.38L14.0398 20.69C13.9498 20.83 13.8798 20.92 13.7998 21.01L13.7098 21.11C13.6398 21.18 13.5598 21.25 13.4798 21.31C13.4298 21.35 13.3798 21.39 13.3298 21.42L13.2498 21.48C13.2498 21.48 13.1598 21.53 13.1198 21.55C13.0398 21.59 12.9798 21.62 12.9198 21.65C12.8398 21.68 12.7498 21.71 12.6698 21.74C12.5998 21.76 12.5398 21.78 12.4698 21.79C12.3898 21.81 12.2998 21.82 12.2198 21.83C12.1498 21.83 12.0798 21.84 11.9998 21.84V21.85ZM11.9998 3.15999C10.2698 3.15999 8.63983 3.82999 7.40983 5.05999C5.39983 7.06999 4.93983 10.22 6.27983 12.71L6.31983 12.81L10.7998 20.19C10.8498 20.27 10.8898 20.32 10.9398 20.37C11.0298 20.47 11.0798 20.51 11.1198 20.54L11.4498 20.74C11.4498 20.74 11.5398 20.78 11.5898 20.79L11.7098 20.82C11.7098 20.82 11.7998 20.84 11.8498 20.84C11.9398 20.84 12.0198 20.84 12.1098 20.84C12.1598 20.84 12.2098 20.83 12.2598 20.82L12.3798 20.79C12.3798 20.79 12.4698 20.76 12.5198 20.74L12.8398 20.55C12.8898 20.51 12.9398 20.47 12.9798 20.43C13.0798 20.32 13.1198 20.26 13.1598 20.21L17.6898 12.74C19.0498 10.22 18.5798 7.06999 16.5798 5.05999C15.3598 3.82999 13.7298 3.15999 11.9998 3.15999ZM11.9998 12.6C10.4998 12.6 9.26983 11.38 9.26983 9.86999C9.26983 8.35999 10.4898 7.13999 11.9998 7.13999C13.5098 7.13999 14.7298 8.35999 14.7298 9.86999C14.7298 11.38 13.5098 12.6 11.9998 12.6ZM11.9998 8.13999C11.0498 8.13999 10.2698 8.90999 10.2698 9.86999C10.2698 10.83 11.0498 11.6 11.9998 11.6C12.9498 11.6 13.7298 10.83 13.7298 9.86999C13.7298 8.90999 12.9498 8.13999 11.9998 8.13999Z" fill="#666666"/>
</svg>
