<svg width="24" height="24" viewBox="0 0 24 24" fill="none" xmlns="http://www.w3.org/2000/svg">
<path d="M17.92 19.87H6.08004C3.85004 19.87 2.04004 18.06 2.04004 15.83C2.04004 13.6 3.85004 11.79 6.08004 11.79H17.92C20.15 11.79 21.96 13.6 21.96 15.83C21.96 18.06 20.15 19.87 17.92 19.87ZM6.08004 12.79C4.40004 12.79 3.04004 14.15 3.04004 15.83C3.04004 17.51 4.40004 18.87 6.08004 18.87H17.92C19.6 18.87 20.96 17.51 20.96 15.83C20.96 14.15 19.6 12.79 17.92 12.79H6.08004Z" fill="#666666"/>
<path d="M18.3601 16.33H5.64014C5.36014 16.33 5.14014 16.11 5.14014 15.83C5.14014 15.55 5.36014 15.33 5.64014 15.33H18.3501C18.6301 15.33 18.8501 15.55 18.8501 15.83C18.8501 16.11 18.6301 16.33 18.3501 16.33H18.3601Z" fill="#666666"/>
<path d="M8.64994 17.29C9.45628 17.29 10.1099 16.6363 10.1099 15.83C10.1099 15.0237 9.45628 14.37 8.64994 14.37C7.84361 14.37 7.18994 15.0237 7.18994 15.83C7.18994 16.6363 7.84361 17.29 8.64994 17.29Z" fill="white"/>
<path d="M8.64994 17.79C7.56994 17.79 6.68994 16.91 6.68994 15.83C6.68994 14.75 7.56994 13.87 8.64994 13.87C9.72994 13.87 10.6099 14.75 10.6099 15.83C10.6099 16.91 9.72994 17.79 8.64994 17.79ZM8.64994 14.88C8.11994 14.88 7.68994 15.31 7.68994 15.84C7.68994 16.37 8.11994 16.8 8.64994 16.8C9.17994 16.8 9.60994 16.37 9.60994 15.84C9.60994 15.31 9.17994 14.88 8.64994 14.88Z" fill="#666666"/>
<path d="M9.66994 7.48998H8.93994V6.90998H9.50994L8.93994 4.72998H9.66994L10.1899 6.90998H11.0699L11.6199 4.72998H12.3699L12.9199 6.90998H13.7899L14.3099 4.72998H15.0399L14.4699 6.90998H15.0499V7.48998H14.3199L13.7499 9.67998H12.9999L12.4299 7.48998H11.5499L10.9799 9.67998H10.2199L9.64994 7.48998H9.66994ZM10.6099 8.58998H10.6599L10.9399 7.48998H10.3499L10.6099 8.58998ZM12.2899 6.90998L12.0299 5.88998H11.9899L11.7299 6.90998H12.2999H12.2899ZM13.3499 8.59998H13.3899L13.6599 7.48998H13.0699L13.3499 8.59998Z" fill="#666666"/>
</svg>
