<svg width="24" height="24" viewBox="0 0 24 24" fill="none" xmlns="http://www.w3.org/2000/svg">
<path d="M17.0698 4.30002H16.7998V3.27002C16.7998 2.99002 16.5798 2.77002 16.2998 2.77002C16.0198 2.77002 15.7998 2.99002 15.7998 3.27002V4.30002H13.8198V3.27002C13.8198 2.99002 13.5998 2.77002 13.3198 2.77002C13.0398 2.77002 12.8198 2.99002 12.8198 3.27002V4.30002H10.8398V3.27002C10.8398 2.99002 10.6198 2.77002 10.3398 2.77002C10.0598 2.77002 9.8398 2.99002 9.8398 3.27002V4.30002H7.85981V3.27002C7.85981 2.99002 7.6398 2.77002 7.3598 2.77002C7.0798 2.77002 6.8598 2.99002 6.8598 3.27002V4.30002C5.0298 4.34002 3.5498 5.84002 3.5498 7.68002V17.82C3.5498 19.69 5.0698 21.21 6.9398 21.21H17.0798C18.9498 21.21 20.4698 19.69 20.4698 17.82V7.69002C20.4698 5.82002 18.9498 4.30002 17.0798 4.30002H17.0698ZM6.8498 5.31002V6.41002C6.8498 6.69002 7.0698 6.91002 7.3498 6.91002C7.6298 6.91002 7.8498 6.69002 7.8498 6.41002V5.31002H9.8298V6.41002C9.8298 6.69002 10.0498 6.91002 10.3298 6.91002C10.6098 6.91002 10.8298 6.69002 10.8298 6.41002V5.31002H12.8098V6.41002C12.8098 6.69002 13.0298 6.91002 13.3098 6.91002C13.5898 6.91002 13.8098 6.69002 13.8098 6.41002V5.31002H15.7898V6.41002C15.7898 6.69002 16.0098 6.91002 16.2898 6.91002C16.5698 6.91002 16.7898 6.69002 16.7898 6.41002V5.31002H17.0598C18.3798 5.31002 19.4498 6.38002 19.4498 7.70002V10.11H4.5398V7.70002C4.5398 6.41002 5.5698 5.36002 6.8498 5.32002V5.31002ZM17.0698 20.22H6.9298C5.6098 20.22 4.5398 19.15 4.5398 17.83V11.1H19.4598V17.83C19.4598 19.15 18.3898 20.22 17.0698 20.22Z" fill="#666666"/>
<path d="M8.62023 12.48H6.74023C6.46023 12.48 6.24023 12.7 6.24023 12.98C6.24023 13.26 6.46023 13.48 6.74023 13.48H8.62023C8.90023 13.48 9.12023 13.26 9.12023 12.98C9.12023 12.7 8.90023 12.48 8.62023 12.48Z" fill="#666666"/>
<path d="M13.0299 12.48H11.1499C10.8699 12.48 10.6499 12.7 10.6499 12.98C10.6499 13.26 10.8699 13.48 11.1499 13.48H13.0299C13.3099 13.48 13.5299 13.26 13.5299 12.98C13.5299 12.7 13.3099 12.48 13.0299 12.48Z" fill="#666666"/>
<path d="M17.4401 12.48H15.5601C15.2801 12.48 15.0601 12.7 15.0601 12.98C15.0601 13.26 15.2801 13.48 15.5601 13.48H17.4401C17.7201 13.48 17.9401 13.26 17.9401 12.98C17.9401 12.7 17.7201 12.48 17.4401 12.48Z" fill="#666666"/>
<path d="M8.62023 15.02H6.74023C6.46023 15.02 6.24023 15.24 6.24023 15.52C6.24023 15.8 6.46023 16.02 6.74023 16.02H8.62023C8.90023 16.02 9.12023 15.8 9.12023 15.52C9.12023 15.24 8.90023 15.02 8.62023 15.02Z" fill="#666666"/>
<path d="M13.0299 15.02H11.1499C10.8699 15.02 10.6499 15.24 10.6499 15.52C10.6499 15.8 10.8699 16.02 11.1499 16.02H13.0299C13.3099 16.02 13.5299 15.8 13.5299 15.52C13.5299 15.24 13.3099 15.02 13.0299 15.02Z" fill="#666666"/>
<path d="M17.4401 15.02H15.5601C15.2801 15.02 15.0601 15.24 15.0601 15.52C15.0601 15.8 15.2801 16.02 15.5601 16.02H17.4401C17.7201 16.02 17.9401 15.8 17.9401 15.52C17.9401 15.24 17.7201 15.02 17.4401 15.02Z" fill="#666666"/>
<path d="M8.62023 17.56H6.74023C6.46023 17.56 6.24023 17.78 6.24023 18.06C6.24023 18.34 6.46023 18.56 6.74023 18.56H8.62023C8.90023 18.56 9.12023 18.34 9.12023 18.06C9.12023 17.78 8.90023 17.56 8.62023 17.56Z" fill="#666666"/>
<path d="M13.0299 17.56H11.1499C10.8699 17.56 10.6499 17.78 10.6499 18.06C10.6499 18.34 10.8699 18.56 11.1499 18.56H13.0299C13.3099 18.56 13.5299 18.34 13.5299 18.06C13.5299 17.78 13.3099 17.56 13.0299 17.56Z" fill="#666666"/>
<path d="M17.4401 17.56H15.5601C15.2801 17.56 15.0601 17.78 15.0601 18.06C15.0601 18.34 15.2801 18.56 15.5601 18.56H17.4401C17.7201 18.56 17.9401 18.34 17.9401 18.06C17.9401 17.78 17.7201 17.56 17.4401 17.56Z" fill="#666666"/>
</svg>
