<svg width="24" height="24" viewBox="0 0 24 24" fill="none" xmlns="http://www.w3.org/2000/svg">
<path d="M11.9998 11.25C14.0198 11.25 15.6598 9.60999 15.6598 7.58999C15.6598 5.56999 14.0198 3.92999 11.9998 3.92999C9.97984 3.92999 8.33984 5.56999 8.33984 7.58999C8.33984 9.60999 9.97984 11.25 11.9998 11.25ZM11.9998 4.93999C13.4698 4.93999 14.6598 6.12999 14.6598 7.59999C14.6598 9.06999 13.4698 10.26 11.9998 10.26C10.5298 10.26 9.33984 9.06999 9.33984 7.59999C9.33984 6.12999 10.5298 4.93999 11.9998 4.93999Z" fill="#666666"/>
<path d="M18.5298 17.33C17.5698 14.54 14.9498 12.67 11.9998 12.67C9.04979 12.67 6.42979 14.54 5.46979 17.33C5.25979 17.95 5.35979 18.62 5.74979 19.17C6.14979 19.74 6.80979 20.07 7.49979 20.07H16.5098C17.1998 20.07 17.8598 19.73 18.2598 19.17C18.6498 18.62 18.7498 17.96 18.5398 17.33H18.5298ZM17.4398 18.58C17.2198 18.88 16.8698 19.07 16.4998 19.07H7.49979C7.12979 19.07 6.77979 18.89 6.55979 18.58C6.35979 18.3 6.30979 17.96 6.40979 17.65C7.22979 15.26 9.46979 13.66 11.9998 13.66C14.5298 13.66 16.7698 15.26 17.5898 17.65C17.6998 17.96 17.6398 18.3 17.4398 18.58Z" fill="#666666"/>
</svg>
