<svg width="24" height="24" viewBox="0 0 24 24" fill="none" xmlns="http://www.w3.org/2000/svg">
<path d="M9.58525 18.223L15.7972 12.0172C15.871 11.9433 15.9233 11.8632 15.9543 11.777C15.9852 11.6909 16.0005 11.5985 16 11.5C16 11.4015 15.9845 11.3091 15.9535 11.223C15.9226 11.1368 15.8705 11.0567 15.7972 10.9828L9.58525 4.75858C9.41321 4.58619 9.19815 4.5 8.94009 4.5C8.68203 4.5 8.46083 4.59235 8.2765 4.77704C8.09217 4.96174 8 5.17722 8 5.42348C8 5.66974 8.09217 5.88522 8.2765 6.06992L13.6958 11.5L8.2765 16.9301C8.10445 17.1025 8.01843 17.315 8.01843 17.5677C8.01843 17.8203 8.1106 18.0388 8.29493 18.223C8.47926 18.4077 8.69431 18.5 8.94009 18.5C9.18587 18.5 9.40092 18.4077 9.58525 18.223Z" fill="#C8C8C8"/>
</svg>
