<svg width="14" height="15" viewBox="0 0 14 15" fill="none" xmlns="http://www.w3.org/2000/svg">
<path d="M3.55083 12.3688L3.43919 11.8815C3.26187 11.9221 3.12061 12.0558 3.07031 12.2306C3.02002 12.4054 3.06864 12.5938 3.19727 12.7224L3.55083 12.3688ZM3.57021 12.3882L3.69962 12.8712C3.87216 12.825 4.00694 12.6902 4.05317 12.5176C4.09941 12.3451 4.05007 12.161 3.92376 12.0347L3.57021 12.3882ZM1.06066 13.0607L0.577697 12.9313C0.531464 13.1038 0.580794 13.2879 0.707107 13.4142C0.833419 13.5405 1.01752 13.5899 1.19007 13.5436L1.06066 13.0607ZM1.73309 10.5511L2.08665 10.1976C1.96033 10.0712 1.77623 10.0219 1.60368 10.0681C1.43114 10.1144 1.29636 10.2492 1.25013 10.4217L1.73309 10.5511ZM1.75247 10.5705L1.39892 10.924C1.52755 11.0527 1.71589 11.1013 1.89071 11.051C2.06553 11.0007 2.19924 10.8594 2.23985 10.6821L1.75247 10.5705ZM3.19727 12.7224L3.21666 12.7418L3.92376 12.0347L3.90438 12.0153L3.19727 12.7224ZM3.4408 11.9053L0.931251 12.5777L1.19007 13.5436L3.69962 12.8712L3.4408 11.9053ZM1.54362 13.1901L2.21605 10.6805L1.25013 10.4217L0.577697 12.9313L1.54362 13.1901ZM1.37954 10.9047L1.39892 10.924L2.10603 10.2169L2.08665 10.1976L1.37954 10.9047ZM2.23985 10.6821C2.28028 10.5056 2.36899 10.3381 2.50738 10.1997L1.80027 9.49262C1.52513 9.76776 1.34627 10.1045 1.2651 10.4589L2.23985 10.6821ZM2.50738 10.1997L10.9927 1.71445L10.2856 1.00734L1.80027 9.49262L2.50738 10.1997ZM10.9927 1.71445C11.3832 1.32392 12.0163 1.32392 12.4069 1.71445L13.114 1.00734C12.3329 0.226293 11.0666 0.226294 10.2856 1.00734L10.9927 1.71445ZM12.4069 1.71445C12.7974 2.10497 12.7974 2.73814 12.4069 3.12866L13.114 3.83577C13.895 3.05472 13.895 1.78839 13.114 1.00734L12.4069 1.71445ZM12.4069 3.12866L3.92159 11.6139L4.6287 12.321L13.114 3.83577L12.4069 3.12866ZM3.92159 11.6139C3.7832 11.7523 3.6157 11.841 3.43919 11.8815L3.66246 12.8562C4.01684 12.7751 4.35356 12.5962 4.6287 12.321L3.92159 11.6139Z" fill="#469EFF"/>
<path d="M9.61523 2.38477L11.7366 4.50609" stroke="#469EFF"/>
</svg>
