<svg width="24" height="24" viewBox="0 0 24 24" fill="none" xmlns="http://www.w3.org/2000/svg">
<path fill-rule="evenodd" clip-rule="evenodd" d="M13.0201 4.39407C13.0201 3.84178 12.5724 3.39407 12.0201 3.39407C11.4679 3.39407 11.0201 3.84178 11.0201 4.39407L11.0201 11.0001H4.41428C3.86199 11.0001 3.41428 11.4478 3.41428 12.0001C3.41428 12.5523 3.86199 13.0001 4.41428 13.0001H11.0204L11.0204 19.6062C11.0204 20.1585 11.4681 20.6062 12.0204 20.6062C12.5727 20.6062 13.0204 20.1585 13.0204 19.6062L13.0204 13.0002H19.6263C20.1785 13.0002 20.6263 12.5525 20.6263 12.0002C20.6263 11.4479 20.1785 11.0002 19.6263 11.0002H13.0201L13.0201 4.39407Z" fill="#BABABA"/>
</svg>
