<svg width="51" height="51" viewBox="0 0 51 51" fill="none" xmlns="http://www.w3.org/2000/svg">
<path d="M38.25 27.6211H27.625V38.2461C27.625 38.8097 27.4011 39.3502 27.0026 39.7487C26.6041 40.1472 26.0636 40.3711 25.5 40.3711C24.9364 40.3711 24.3959 40.1472 23.9974 39.7487C23.5989 39.3502 23.375 38.8097 23.375 38.2461V27.6211H12.75C12.1864 27.6211 11.6459 27.3972 11.2474 26.9987C10.8489 26.6002 10.625 26.0597 10.625 25.4961C10.625 24.9325 10.8489 24.392 11.2474 23.9935C11.6459 23.595 12.1864 23.3711 12.75 23.3711H23.375V12.7461C23.375 12.1825 23.5989 11.642 23.9974 11.2435C24.3959 10.845 24.9364 10.6211 25.5 10.6211C26.0636 10.6211 26.6041 10.845 27.0026 11.2435C27.4011 11.642 27.625 12.1825 27.625 12.7461V23.3711H38.25C38.8136 23.3711 39.3541 23.595 39.7526 23.9935C40.1511 24.392 40.375 24.9325 40.375 25.4961C40.375 26.0597 40.1511 26.6002 39.7526 26.9987C39.3541 27.3972 38.8136 27.6211 38.25 27.6211Z" fill="white"/>
</svg>
