<svg width="743" height="178" viewBox="0 0 743 178" fill="none" xmlns="http://www.w3.org/2000/svg">
<path d="M739.536 92.5355C741.488 90.5829 741.488 87.4171 739.536 85.4645L707.716 53.6447C705.763 51.692 702.597 51.692 700.645 53.6447C698.692 55.5973 698.692 58.7631 700.645 60.7157L728.929 89L700.645 117.284C698.692 119.237 698.692 122.403 700.645 124.355C702.597 126.308 705.763 126.308 707.716 124.355L739.536 92.5355ZM0 94H736V84H0V94Z" fill="black"/>
<line x1="465.5" y1="38" x2="465.5" y2="138" stroke="black" stroke-width="5"/>
<line x1="617.5" y1="38" x2="617.5" y2="138" stroke="black" stroke-width="5"/>
<line x1="317.5" y1="38" x2="317.5" y2="138" stroke="black" stroke-width="5"/>
<path d="M695.21 31.114H697.758V28.342H695.168C695.266 28.804 695.322 29.28 695.322 29.812C695.322 30.288 695.28 30.708 695.21 31.114ZM692.116 32.99C693.208 32.99 693.95 31.8 693.95 29.812C693.95 27.852 693.208 26.662 692.116 26.662C691.038 26.662 690.282 27.852 690.282 29.812C690.282 31.8 691.038 32.99 692.116 32.99ZM697.758 24.422H699.214V37.106H697.758V32.304H694.846C694.314 33.55 693.32 34.278 692.116 34.278C690.254 34.278 688.924 32.556 688.924 29.812C688.924 27.096 690.254 25.36 692.116 25.36C693.264 25.36 694.202 26.018 694.776 27.152H697.758V24.422ZM709.601 28.916V31.968H708.257V24.674H709.601V27.726H710.917V24.422H712.289V32.402H710.917V28.916H709.601ZM707.823 25.85V26.984H701.523V25.85H703.973V24.548H705.387V25.85H707.823ZM703.273 29.714C703.273 30.4 703.833 30.848 704.687 30.848C705.541 30.848 706.115 30.4 706.115 29.714C706.115 29.028 705.541 28.58 704.687 28.58C703.833 28.58 703.273 29.028 703.273 29.714ZM707.403 29.714C707.403 31.03 706.283 31.898 704.687 31.898C703.105 31.898 701.985 31.03 701.985 29.714C701.985 28.412 703.105 27.53 704.687 27.53C706.283 27.53 707.403 28.412 707.403 29.714ZM708.089 35.986C709.909 35.986 710.917 35.58 710.917 34.824C710.917 34.068 709.909 33.676 708.089 33.676C706.283 33.676 705.247 34.068 705.247 34.824C705.247 35.58 706.283 35.986 708.089 35.986ZM708.089 32.584C710.749 32.584 712.359 33.396 712.359 34.824C712.359 36.252 710.749 37.078 708.089 37.078C705.415 37.078 703.805 36.252 703.805 34.824C703.805 33.396 705.415 32.584 708.089 32.584ZM724.868 29.42L725.022 30.596C723.37 30.932 721.872 31.016 719.128 31.016H718.106V25.346H723.734V26.522H719.548V29.84C721.97 29.826 723.328 29.756 724.868 29.42ZM723.412 35.916C725.162 35.916 726.198 35.44 726.198 34.586C726.198 33.732 725.162 33.27 723.412 33.27C721.662 33.27 720.626 33.732 720.626 34.586C720.626 35.44 721.662 35.916 723.412 35.916ZM723.412 32.108C726.002 32.108 727.626 33.046 727.626 34.586C727.626 36.14 726.002 37.092 723.412 37.092C720.822 37.092 719.198 36.14 719.198 34.586C719.198 33.046 720.822 32.108 723.412 32.108ZM727.514 27.586H729.278V28.776H727.514V31.856H726.044V24.436H727.514V27.586ZM740.911 24.422V30.848H739.469V24.422H740.911ZM732.133 27.698C732.133 28.706 732.945 29.364 734.037 29.364C735.143 29.364 735.969 28.706 735.969 27.698C735.969 26.69 735.143 26.032 734.037 26.032C732.945 26.032 732.133 26.69 732.133 27.698ZM737.369 27.698C737.369 29.364 735.955 30.54 734.037 30.54C732.133 30.54 730.733 29.364 730.733 27.698C730.733 26.032 732.133 24.842 734.037 24.842C735.955 24.842 737.369 26.032 737.369 27.698ZM734.065 35.79H741.289V36.924H732.651V33.606H739.483V32.556H732.623V31.422H740.911V34.67H734.065V35.79Z" fill="black"/>
<path d="M391.838 6.872V12.85C392.398 12.836 392.986 12.808 393.56 12.78V6.872H391.838ZM394.96 6.872V12.696C395.548 12.64 396.136 12.584 396.696 12.514L396.78 13.578C394.162 14.012 391.236 14.054 389.038 14.054L388.884 12.864C389.36 12.864 389.892 12.864 390.438 12.864V6.872H389.206V5.71H396.192V6.872H394.96ZM400.798 9.378V10.568H398.824V17.092H397.382V4.436H398.824V9.378H400.798ZM404.101 10.232V12.948C406.201 12.934 407.783 12.864 409.617 12.57L409.757 13.732C407.783 14.054 406.047 14.124 403.709 14.124H402.659V5.528H408.903V6.718H404.101V9.07H408.413V10.232H404.101ZM410.905 4.422H412.347V17.092H410.905V4.422ZM417.638 13.032C418.506 13.032 419.038 11.898 419.038 9.896C419.038 7.894 418.506 6.774 417.638 6.774C416.77 6.774 416.238 7.894 416.238 9.896C416.238 11.898 416.77 13.032 417.638 13.032ZM421.684 9.224V4.674H423.028V16.476H421.684V10.414H420.34C420.214 12.878 419.178 14.39 417.638 14.39C416 14.39 414.922 12.668 414.922 9.896C414.922 7.124 416 5.416 417.638 5.416C419.15 5.416 420.172 6.858 420.326 9.224H421.684ZM424.218 4.436H425.59V17.064H424.218V4.436ZM432.009 11.982H434.851V9.28C434.851 8.72 434.893 7.852 434.921 7.278H434.865C434.613 7.81 434.333 8.342 434.039 8.874L432.009 11.982ZM434.851 16V13.228H430.385V12.15L434.487 5.682H436.363V11.982H437.665V13.228H436.363V16H434.851ZM443.802 9.924V6.522H440.764V9.924H443.802ZM447.834 7.558H445.202V8.888H447.834V7.558ZM445.202 10.064V11.072H439.35V5.374H445.202V6.382H447.834V4.436H449.276V11.884H447.834V10.064H445.202ZM445.062 15.958C446.854 15.958 447.89 15.496 447.89 14.656C447.89 13.83 446.854 13.368 445.062 13.368C443.27 13.368 442.248 13.83 442.248 14.656C442.248 15.496 443.27 15.958 445.062 15.958ZM445.062 12.234C447.708 12.234 449.332 13.13 449.332 14.656C449.332 16.182 447.708 17.078 445.062 17.078C442.43 17.078 440.806 16.182 440.806 14.656C440.806 13.13 442.43 12.234 445.062 12.234ZM462.303 5.64V6.802H454.841V5.64H457.851V4.324H459.293V5.64H462.303ZM456.885 9.49C456.885 10.218 457.557 10.652 458.565 10.652C459.573 10.652 460.259 10.218 460.259 9.49C460.259 8.776 459.573 8.342 458.565 8.342C457.557 8.342 456.885 8.776 456.885 9.49ZM461.631 9.49C461.631 10.834 460.399 11.73 458.565 11.73C456.745 11.73 455.499 10.834 455.499 9.49C455.499 8.16 456.745 7.264 458.565 7.264C460.399 7.264 461.631 8.16 461.631 9.49ZM463.269 15.776V14.614H458.047V15.776H463.269ZM463.269 13.494V12.332H464.697V16.924H456.619V12.332H458.047V13.494H463.269ZM466.489 7.586V8.776H464.697V11.814H463.255V4.436H464.697V7.586H466.489ZM476.33 7.236V6.032H469.05V4.87H477.8V8.314H470.534V9.63H478.08V10.792H469.078V7.236H476.33ZM479.158 11.912L479.172 13.074H476.33V17.092H474.888V13.074H471.962V17.092H470.52V13.074H467.692V11.912H479.158ZM485.732 7.502C485.732 8.384 486.474 8.944 487.524 8.944C488.588 8.944 489.302 8.384 489.302 7.502C489.302 6.634 488.588 6.074 487.524 6.074C486.474 6.074 485.732 6.634 485.732 7.502ZM491.444 10.764L491.542 11.814C488.938 12.304 485.998 12.346 483.884 12.346L483.702 11.17C484.612 11.17 485.69 11.17 486.824 11.128V9.98C485.368 9.756 484.388 8.804 484.388 7.502C484.388 6.004 485.69 4.982 487.524 4.982C489.358 4.982 490.646 6.004 490.646 7.502C490.646 8.79 489.694 9.742 488.266 9.98V11.072C489.344 11.002 490.436 10.918 491.444 10.764ZM486.894 13.284V15.664H494.062V16.826H485.452V13.284H486.894ZM493.628 8.58H495.364V9.77H493.628V14.11H492.186V4.45H493.628V8.58ZM501.103 12.22V14.404H503.693V12.22H501.103ZM505.121 14.404H508.061V15.594H496.609V14.404H499.675V12.22H497.995V8.16H505.275V6.48H497.967V5.318H506.703V9.308H499.409V11.058H506.983V12.22H505.121V14.404ZM523.258 10.092V11.254H518.694V5.542H523.132V6.718H520.136V10.092H523.258ZM518.022 9.742L518.148 10.932C516.818 11.212 515.684 11.254 514.312 11.254H513.57V5.556H517.91V6.732H515.012V10.064C516.048 10.036 516.972 9.966 518.022 9.742ZM519.044 14.348H524.084V15.538H512.632V14.348H517.602V11.842H519.044V14.348ZM535.661 8.062V9.238H526.981V4.884H528.423V8.062H535.661ZM528.339 13.074V15.636H535.731V16.798H526.897V13.074H528.339ZM525.497 10.75H536.977V11.912H525.497V10.75ZM393.424 26.872V32.85C393.984 32.836 394.572 32.808 395.146 32.78V26.872H393.424ZM396.546 26.872V32.696C397.134 32.64 397.722 32.584 398.282 32.514L398.366 33.578C395.748 34.012 392.822 34.054 390.624 34.054L390.47 32.864C390.946 32.864 391.478 32.864 392.024 32.864V26.872H390.792V25.71H397.778V26.872H396.546ZM402.384 29.378V30.568H400.41V37.092H398.968V24.436H400.41V29.378H402.384ZM405.687 30.232V32.948C407.787 32.934 409.369 32.864 411.203 32.57L411.343 33.732C409.369 34.054 407.633 34.124 405.295 34.124H404.245V25.528H410.489V26.718H405.687V29.07H409.999V30.232H405.687ZM412.491 24.422H413.933V37.092H412.491V24.422ZM422.934 31.856H425.412V24.422H426.854V34.04H425.412V32.864H422.934V31.856ZM420.414 25.976C419.364 25.976 418.65 26.424 418.65 27.138C418.65 27.852 419.364 28.3 420.414 28.3C421.45 28.3 422.164 27.852 422.164 27.138C422.164 26.424 421.45 25.976 420.414 25.976ZM420.414 29.364C418.552 29.364 417.278 28.482 417.278 27.138C417.278 25.794 418.552 24.912 420.414 24.912C422.262 24.912 423.536 25.794 423.536 27.138C423.536 28.482 422.262 29.364 420.414 29.364ZM419.84 33.634V31.282C418.636 31.338 417.502 31.352 416.494 31.352L416.312 30.176C418.636 30.162 421.744 30.134 424.418 29.798L424.53 30.834C423.466 31.016 422.36 31.128 421.282 31.198V33.634H419.84ZM419.462 35.664H427.148V36.84H418.02V33.102H419.462V35.664ZM439.139 27.824H441.435V24.45H442.877V33.69H441.435V29.014H439.139V27.824ZM439.923 30.778L439.209 31.898C437.809 31.422 436.787 30.428 436.255 29.182C435.695 30.554 434.631 31.66 433.133 32.178L432.391 31.044C434.351 30.358 435.499 28.692 435.499 26.984V26.55H432.825V25.388H439.587V26.55H436.955V26.984C436.955 28.538 438.033 30.12 439.923 30.778ZM436.129 35.664H443.199V36.84H434.687V32.892H436.129V35.664ZM451.836 31.856H454.314V24.422H455.756V34.04H454.314V32.864H451.836V31.856ZM449.316 25.976C448.266 25.976 447.552 26.424 447.552 27.138C447.552 27.852 448.266 28.3 449.316 28.3C450.352 28.3 451.066 27.852 451.066 27.138C451.066 26.424 450.352 25.976 449.316 25.976ZM449.316 29.364C447.454 29.364 446.18 28.482 446.18 27.138C446.18 25.794 447.454 24.912 449.316 24.912C451.164 24.912 452.438 25.794 452.438 27.138C452.438 28.482 451.164 29.364 449.316 29.364ZM448.742 33.634V31.282C447.538 31.338 446.404 31.352 445.396 31.352L445.214 30.176C447.538 30.162 450.646 30.134 453.32 29.798L453.432 30.834C452.368 31.016 451.262 31.128 450.184 31.198V33.634H448.742ZM448.364 35.664H456.05V36.84H446.922V33.102H448.364V35.664ZM466.25 29.098V26.242H463.17V29.098H466.25ZM467.664 25.094V30.246H461.742V25.094H467.664ZM464.458 34.628V35.776H471.598V36.924H463.044V33.578H469.75V32.5H463.016V31.366H471.178V34.628H464.458ZM471.178 27.026H472.956V28.216H471.178V30.82H469.736V24.436H471.178V27.026ZM481.537 29.84L481.691 31.016C479.787 31.352 478.135 31.422 475.713 31.422H474.691V27.712H478.975V26.354H474.663V25.192H480.403V28.804H476.105V30.246C478.275 30.232 479.801 30.162 481.537 29.84ZM479.969 35.972C481.747 35.972 482.769 35.538 482.769 34.726C482.769 33.928 481.747 33.494 479.969 33.494C478.177 33.494 477.169 33.928 477.169 34.726C477.169 35.538 478.177 35.972 479.969 35.972ZM479.969 32.374C482.587 32.374 484.183 33.242 484.183 34.726C484.183 36.21 482.587 37.078 479.969 37.078C477.351 37.078 475.755 36.21 475.755 34.726C475.755 33.242 477.351 32.374 479.969 32.374ZM484.057 27.502H485.849V28.692H484.057V32.038H482.615V24.422H484.057V27.502ZM488.844 30.358V32.85C490.174 32.836 491.42 32.766 492.904 32.514L493.03 33.704C491.322 33.998 489.908 34.04 488.326 34.04H487.458V29.196H490.538V26.928H487.43V25.766H491.924V30.358H488.844ZM493.912 28.86V24.716H495.256V36.448H493.912V30.05H492.484V28.86H493.912ZM496.474 24.436H497.846V37.078H496.474V24.436ZM502.156 26.788V32.808C504.508 32.794 506.02 32.724 507.714 32.402L507.868 33.606C506.034 33.942 504.396 34.012 501.778 34.012H500.728V25.598H506.748V26.788H502.156ZM508.89 24.422H510.346V37.106H508.89V24.422ZM520.532 36.182C517.886 36.182 516.052 34.124 516.052 30.806C516.052 27.488 517.886 25.5 520.532 25.5C523.178 25.5 525.026 27.488 525.026 30.806C525.026 34.124 523.178 36.182 520.532 36.182ZM520.532 34.768C522.24 34.768 523.36 33.214 523.36 30.806C523.36 28.384 522.24 26.914 520.532 26.914C518.824 26.914 517.718 28.384 517.718 30.806C517.718 33.214 518.824 34.768 520.532 34.768ZM527.167 36V25.682H528.833L532.249 31.744L533.327 33.928H533.397C533.313 32.864 533.187 31.618 533.187 30.498V25.682H534.727V36H533.061L529.645 29.924L528.567 27.768H528.497C528.581 28.832 528.707 30.022 528.707 31.142V36H527.167Z" fill="black"/>
<path d="M586.332 31.254H587.788V28.552H586.332C586.402 28.972 586.43 29.42 586.43 29.91C586.43 30.4 586.402 30.834 586.332 31.254ZM583.714 33.032C584.582 33.032 585.128 31.912 585.128 29.91C585.128 27.908 584.582 26.774 583.714 26.774C582.846 26.774 582.3 27.908 582.3 29.91C582.3 31.912 582.846 33.032 583.714 33.032ZM587.788 27.362V24.674H589.132V36.476H587.788V32.43H586.052C585.604 33.662 584.778 34.39 583.714 34.39C582.076 34.39 580.998 32.682 580.998 29.91C580.998 27.124 582.076 25.416 583.714 25.416C584.764 25.416 585.604 26.116 586.038 27.362H587.788ZM590.294 24.436H591.666V37.064H590.294V24.436ZM595.319 28.202C595.319 29.308 596.145 30.022 597.265 30.022C598.399 30.022 599.225 29.308 599.225 28.202C599.225 27.096 598.399 26.382 597.265 26.382C596.145 26.382 595.319 27.096 595.319 28.202ZM600.639 28.202C600.639 29.994 599.197 31.24 597.265 31.24C595.347 31.24 593.905 29.994 593.905 28.202C593.905 26.41 595.347 25.164 597.265 25.164C599.197 25.164 600.639 26.41 600.639 28.202ZM595.305 33.648V32.486H603.621V37.092H602.179V33.648H595.305ZM605.371 27.432H603.621V28.958H605.371V30.148H603.621V31.926H602.179V24.436H603.621V26.242H605.371V27.432ZM610.881 30.75L610.293 29.644C612.141 29.238 613.219 28.146 613.233 26.928H610.587V25.794H613.219V24.464H614.675V25.794H617.321V26.928H614.675C614.689 28.076 615.753 29.07 617.573 29.448L616.999 30.568C615.557 30.26 614.535 29.56 613.975 28.65C613.429 29.658 612.379 30.414 610.881 30.75ZM617.979 31.086L618.063 32.15C616.957 32.346 615.795 32.486 614.675 32.542V36.714H613.233V32.626C612.057 32.668 610.951 32.682 609.957 32.682L609.775 31.492C612.127 31.492 615.263 31.464 617.979 31.086ZM618.791 24.436H620.233V37.092H618.791V24.436ZM633.615 30.414L633.013 31.618C630.941 31.212 629.149 29.952 628.337 28.272C627.497 29.952 625.705 31.212 623.647 31.618L623.031 30.414C625.537 29.994 627.567 28.104 627.567 26.158V25.206H629.093V26.158C629.093 28.118 631.123 29.994 633.615 30.414ZM629.037 34.32H634.105V35.51H622.653V34.32H627.595V31.366H629.037V34.32ZM643.339 25.486V27.558C643.339 29.882 644.627 32.206 646.615 33.102L645.775 34.25C644.319 33.564 643.213 32.164 642.639 30.456C642.065 32.29 640.945 33.788 639.419 34.53L638.565 33.326C640.581 32.416 641.897 29.994 641.897 27.558V25.486H643.339ZM647.623 24.422H649.079V37.106H647.623V24.422Z" fill="black"/>
<path d="M283.009 31.982H285.851V29.28C285.851 28.72 285.893 27.852 285.921 27.278H285.865C285.613 27.81 285.333 28.342 285.039 28.874L283.009 31.982ZM285.851 36V33.228H281.385V32.15L285.487 25.682H287.363V31.982H288.665V33.228H287.363V36H285.851ZM294.802 29.924V26.522H291.764V29.924H294.802ZM298.834 27.558H296.202V28.888H298.834V27.558ZM296.202 30.064V31.072H290.35V25.374H296.202V26.382H298.834V24.436H300.276V31.884H298.834V30.064H296.202ZM296.062 35.958C297.854 35.958 298.89 35.496 298.89 34.656C298.89 33.83 297.854 33.368 296.062 33.368C294.27 33.368 293.248 33.83 293.248 34.656C293.248 35.496 294.27 35.958 296.062 35.958ZM296.062 32.234C298.708 32.234 300.332 33.13 300.332 34.656C300.332 36.182 298.708 37.078 296.062 37.078C293.43 37.078 291.806 36.182 291.806 34.656C291.806 33.13 293.43 32.234 296.062 32.234ZM313.303 25.64V26.802H305.841V25.64H308.851V24.324H310.293V25.64H313.303ZM307.885 29.49C307.885 30.218 308.557 30.652 309.565 30.652C310.573 30.652 311.259 30.218 311.259 29.49C311.259 28.776 310.573 28.342 309.565 28.342C308.557 28.342 307.885 28.776 307.885 29.49ZM312.631 29.49C312.631 30.834 311.399 31.73 309.565 31.73C307.745 31.73 306.499 30.834 306.499 29.49C306.499 28.16 307.745 27.264 309.565 27.264C311.399 27.264 312.631 28.16 312.631 29.49ZM314.269 35.776V34.614H309.047V35.776H314.269ZM314.269 33.494V32.332H315.697V36.924H307.619V32.332H309.047V33.494H314.269ZM317.489 27.586V28.776H315.697V31.814H314.255V24.436H315.697V27.586H317.489ZM327.33 27.236V26.032H320.05V24.87H328.8V28.314H321.534V29.63H329.08V30.792H320.078V27.236H327.33ZM330.158 31.912L330.172 33.074H327.33V37.092H325.888V33.074H322.962V37.092H321.52V33.074H318.692V31.912H330.158ZM341.464 27.824H343.76V24.45H345.202V33.69H343.76V29.014H341.464V27.824ZM342.248 30.778L341.534 31.898C340.134 31.422 339.112 30.428 338.58 29.182C338.02 30.554 336.956 31.66 335.458 32.178L334.716 31.044C336.676 30.358 337.824 28.692 337.824 26.984V26.55H335.15V25.388H341.912V26.55H339.28V26.984C339.28 28.538 340.358 30.12 342.248 30.778ZM338.454 35.664H345.524V36.84H337.012V32.892H338.454V35.664Z" fill="black"/>
<path d="M5.138 70.886V72.104C5.138 74.064 6.384 76.304 8.302 77.214L7.504 78.348C6.09 77.676 5.012 76.276 4.438 74.68C3.878 76.444 2.758 77.956 1.302 78.67L0.476 77.522C2.408 76.598 3.696 74.204 3.696 72.104V70.886H0.938V69.696H7.812V70.886H5.138ZM12.474 73.42V74.61H10.5V81.078H9.058V68.436H10.5V73.42H12.474ZM19.2769 79.972C21.1249 79.972 22.1749 79.566 22.1749 78.782C22.1749 78.012 21.1249 77.592 19.2769 77.592C17.4289 77.592 16.3929 78.012 16.3929 78.782C16.3929 79.566 17.4289 79.972 19.2769 79.972ZM19.2769 76.486C21.9929 76.486 23.6309 77.326 23.6309 78.782C23.6309 80.252 21.9929 81.092 19.2769 81.092C16.5749 81.092 14.9229 80.252 14.9229 78.782C14.9229 77.326 16.5749 76.486 19.2769 76.486ZM20.0329 74.54H25.0309V75.716H13.6069V74.54H18.5909V73.28H15.0209V68.996H23.6309V70.144H16.4489V72.118H23.7149V73.28H20.0329V74.54ZM35.5018 71.278H32.5758C31.7918 73.21 29.9298 74.498 27.1438 75.128L26.6398 73.952C29.6358 73.308 31.1898 71.922 31.3858 70.158H27.3258V68.996H32.9818C32.9818 69.402 32.9538 69.794 32.8838 70.158H35.5018V68.436H36.9438V74.848H35.5018V73.7H32.4078V72.58H35.5018V71.278ZM30.1818 79.804H37.2938V80.966H28.7398V77.564H35.5018V76.514H28.7118V75.366H36.9438V78.642H30.1818V79.804ZM43.1867 70.998V71.908C43.1867 74.064 43.9987 76.248 45.7627 77.27L44.9227 78.32C43.7327 77.62 42.9487 76.374 42.5007 74.904C42.0527 76.5 41.2407 77.858 40.0227 78.628L39.1547 77.564C40.9467 76.444 41.7867 74.162 41.7867 71.908V70.998H39.5607V69.808H45.2727V70.998H43.1867ZM46.2107 72.874V68.674H47.5687V80.462H46.2107V74.05H44.3487V72.874H46.2107ZM48.7587 68.422H50.1307V81.064H48.7587V68.422ZM64.3202 68.422H65.7762V81.106H64.3202V68.422ZM59.0422 69.36C60.9322 69.36 62.3042 71.096 62.3042 73.812C62.3042 76.556 60.9322 78.278 59.0422 78.278C57.1662 78.278 55.7942 76.556 55.7942 73.812C55.7942 71.096 57.1662 69.36 59.0422 69.36ZM59.0422 70.662C57.9502 70.662 57.1802 71.852 57.1802 73.812C57.1802 75.8 57.9502 76.99 59.0422 76.99C60.1482 76.99 60.9182 75.8 60.9182 73.812C60.9182 71.852 60.1482 70.662 59.0422 70.662ZM74.9871 71.824H77.2831V68.45H78.7251V77.69H77.2831V73.014H74.9871V71.824ZM75.7711 74.778L75.0571 75.898C73.6571 75.422 72.6351 74.428 72.1031 73.182C71.5431 74.554 70.4791 75.66 68.9811 76.178L68.2391 75.044C70.1991 74.358 71.3471 72.692 71.3471 70.984V70.55H68.6731V69.388H75.4351V70.55H72.8031V70.984C72.8031 72.538 73.8811 74.12 75.7711 74.778ZM71.9771 79.664H79.0471V80.84H70.5351V76.892H71.9771V79.664ZM81.468 69.766H84.884C84.884 73.014 84.38 75.856 82.126 78.306L80.978 77.508C82.784 75.59 83.4 73.49 83.526 70.956H81.468V69.766ZM85.318 69.766H88.356C88.356 73.084 87.978 76.388 85.724 79.146L84.562 78.334C86.382 76.15 86.9 73.686 86.998 70.956H85.318V69.766ZM92.892 73.532V74.722H91.114V81.064H89.672V68.436H91.114V73.532H92.892ZM98.6729 70.886V72.09C98.6729 74.19 99.9749 76.374 101.949 77.214L101.151 78.348C99.6809 77.704 98.5469 76.332 97.9589 74.694C97.3989 76.458 96.2649 77.956 94.7809 78.67L93.9549 77.522C95.9149 76.612 97.2169 74.26 97.2169 72.09V70.886H94.4029V69.696H101.487V70.886H98.6729ZM102.957 68.436H104.413V81.078H102.957V68.436ZM117.04 72.062V73.238H108.36V68.884H109.802V72.062H117.04ZM109.718 77.074V79.636H117.11V80.798H108.276V77.074H109.718ZM106.876 74.75H118.356V75.912H106.876V74.75ZM127.337 70.886V72.104C127.337 74.064 128.583 76.304 130.501 77.214L129.703 78.348C128.289 77.676 127.211 76.276 126.637 74.68C126.077 76.444 124.957 77.956 123.501 78.67L122.675 77.522C124.607 76.598 125.895 74.204 125.895 72.104V70.886H123.137V69.696H130.011V70.886H127.337ZM134.673 73.42V74.61H132.699V81.078H131.257V68.436H132.699V73.42H134.673ZM141.49 70.06C139.67 70.06 138.48 70.676 138.48 71.684C138.48 72.706 139.67 73.322 141.49 73.322C143.296 73.322 144.486 72.706 144.486 71.684C144.486 70.676 143.296 70.06 141.49 70.06ZM141.49 74.484C138.816 74.484 136.996 73.392 136.996 71.684C136.996 69.99 138.816 68.898 141.49 68.898C144.15 68.898 145.97 69.99 145.97 71.684C145.97 73.392 144.15 74.484 141.49 74.484ZM147.244 75.562L147.258 76.752H144.402V81.078H142.932V76.752H140.048V81.078H138.578V76.752H135.778V75.562H147.244ZM157.281 79.79V78.656H151.583V79.79H157.281ZM157.281 77.578V76.528H158.709V80.924H150.141V76.528H151.583V77.578H157.281ZM155.111 74.82H160.123V75.982H148.657V74.82H153.669V73.812H150.127V70.704H157.253V69.78H150.099V68.674H158.681V71.74H151.541V72.706H158.933V73.812H155.111V74.82ZM168.326 73.462V68.744H169.684V80.476H168.326V74.624H166.002C165.26 76.08 164.056 77.354 162.306 78.404L161.48 77.382C164.112 75.814 165.358 73.742 165.568 71.152H162.082V69.99H166.996C166.996 71.222 166.828 72.384 166.464 73.462H168.326ZM170.972 68.436H172.358V81.078H170.972V68.436ZM183.033 75.254H184.489V72.552H183.033C183.103 72.972 183.131 73.42 183.131 73.91C183.131 74.4 183.103 74.834 183.033 75.254ZM180.415 77.032C181.283 77.032 181.829 75.912 181.829 73.91C181.829 71.908 181.283 70.774 180.415 70.774C179.547 70.774 179.001 71.908 179.001 73.91C179.001 75.912 179.547 77.032 180.415 77.032ZM184.489 71.362V68.674H185.833V80.476H184.489V76.43H182.753C182.305 77.662 181.479 78.39 180.415 78.39C178.777 78.39 177.699 76.682 177.699 73.91C177.699 71.124 178.777 69.416 180.415 69.416C181.465 69.416 182.305 70.116 182.739 71.362H184.489ZM186.995 68.436H188.367V81.064H186.995V68.436ZM192.02 72.202C192.02 73.308 192.846 74.022 193.966 74.022C195.1 74.022 195.926 73.308 195.926 72.202C195.926 71.096 195.1 70.382 193.966 70.382C192.846 70.382 192.02 71.096 192.02 72.202ZM197.34 72.202C197.34 73.994 195.898 75.24 193.966 75.24C192.048 75.24 190.606 73.994 190.606 72.202C190.606 70.41 192.048 69.164 193.966 69.164C195.898 69.164 197.34 70.41 197.34 72.202ZM192.006 77.648V76.486H200.322V81.092H198.88V77.648H192.006ZM202.072 71.432H200.322V72.958H202.072V74.148H200.322V75.926H198.88V68.436H200.322V70.242H202.072V71.432ZM202.785 82.52L206.677 68.814H207.797L203.905 82.52H202.785ZM209.892 74.75L209.304 73.644C211.152 73.238 212.23 72.146 212.244 70.928H209.598V69.794H212.23V68.464H213.686V69.794H216.332V70.928H213.686C213.7 72.076 214.764 73.07 216.584 73.448L216.01 74.568C214.568 74.26 213.546 73.56 212.986 72.65C212.44 73.658 211.39 74.414 209.892 74.75ZM216.99 75.086L217.074 76.15C215.968 76.346 214.806 76.486 213.686 76.542V80.714H212.244V76.626C211.068 76.668 209.962 76.682 208.968 76.682L208.786 75.492C211.138 75.492 214.274 75.464 216.99 75.086ZM217.802 68.436H219.244V81.092H217.802V68.436ZM232.627 74.414L232.025 75.618C229.953 75.212 228.161 73.952 227.349 72.272C226.509 73.952 224.717 75.212 222.659 75.618L222.043 74.414C224.549 73.994 226.579 72.104 226.579 70.158V69.206H228.105V70.158C228.105 72.118 230.135 73.994 232.627 74.414ZM228.049 78.32H233.117V79.51H221.665V78.32H226.607V75.366H228.049V78.32ZM238.305 69.766H244.171C244.171 73.434 242.603 76.682 238.473 78.768L237.675 77.662C240.769 76.08 242.435 73.854 242.729 70.942H238.305V69.766ZM249.393 73.42V74.624H247.475V81.064H246.033V68.422H247.475V73.42H249.393ZM260.704 71.796V72.958H252.066V68.674H253.508V71.796H260.704ZM256.252 79.93C258.1 79.93 259.15 79.496 259.15 78.726C259.15 77.928 258.1 77.522 256.252 77.522C254.404 77.522 253.368 77.928 253.368 78.726C253.368 79.496 254.404 79.93 256.252 79.93ZM256.252 76.388C258.968 76.388 260.606 77.242 260.606 78.726C260.606 80.196 258.968 81.05 256.252 81.05C253.55 81.05 251.898 80.196 251.898 78.726C251.898 77.242 253.55 76.388 256.252 76.388ZM250.568 74.232H262.006V75.408H250.568V74.232Z" fill="black"/>
<path d="M695.38 149.114H697.928V146.342H695.338C695.436 146.804 695.492 147.28 695.492 147.812C695.492 148.288 695.45 148.708 695.38 149.114ZM692.286 150.99C693.378 150.99 694.12 149.8 694.12 147.812C694.12 145.852 693.378 144.662 692.286 144.662C691.208 144.662 690.452 145.852 690.452 147.812C690.452 149.8 691.208 150.99 692.286 150.99ZM697.928 142.422H699.384V155.106H697.928V150.304H695.016C694.484 151.55 693.49 152.278 692.286 152.278C690.424 152.278 689.094 150.556 689.094 147.812C689.094 145.096 690.424 143.36 692.286 143.36C693.434 143.36 694.372 144.018 694.946 145.152H697.928V142.422ZM709.771 146.916V149.968H708.427V142.674H709.771V145.726H711.087V142.422H712.459V150.402H711.087V146.916H709.771ZM707.993 143.85V144.984H701.693V143.85H704.143V142.548H705.557V143.85H707.993ZM703.443 147.714C703.443 148.4 704.003 148.848 704.857 148.848C705.711 148.848 706.285 148.4 706.285 147.714C706.285 147.028 705.711 146.58 704.857 146.58C704.003 146.58 703.443 147.028 703.443 147.714ZM707.573 147.714C707.573 149.03 706.453 149.898 704.857 149.898C703.275 149.898 702.155 149.03 702.155 147.714C702.155 146.412 703.275 145.53 704.857 145.53C706.453 145.53 707.573 146.412 707.573 147.714ZM708.259 153.986C710.079 153.986 711.087 153.58 711.087 152.824C711.087 152.068 710.079 151.676 708.259 151.676C706.453 151.676 705.417 152.068 705.417 152.824C705.417 153.58 706.453 153.986 708.259 153.986ZM708.259 150.584C710.919 150.584 712.529 151.396 712.529 152.824C712.529 154.252 710.919 155.078 708.259 155.078C705.585 155.078 703.975 154.252 703.975 152.824C703.975 151.396 705.585 150.584 708.259 150.584ZM718.738 147.476L718.318 146.398C720.81 146.258 722.364 145.558 722.644 144.564H718.92V143.486H722.77V142.38H724.212V143.486H728.076V144.564H724.338C724.618 145.558 726.186 146.258 728.65 146.398L728.258 147.476C726.018 147.322 724.282 146.706 723.484 145.642C722.686 146.706 720.978 147.322 718.738 147.476ZM729.21 149.016H724.212V149.996H727.782V152.936H720.586V153.888H728.146V154.966H719.158V151.942H726.368V151.06H719.13V149.996H722.77V149.016H717.8V147.938H729.21V149.016ZM735.635 147.35V145.74H732.541V147.35H735.635ZM737.063 142.968V148.498H731.099V142.968H732.541V144.634H735.635V142.968H737.063ZM733.815 152.712V153.832H740.955V154.966H732.401V151.648H739.107V150.598H732.373V149.478H740.535V152.712H733.815ZM740.535 145.026H742.313V146.216H740.535V148.918H739.093V142.436H740.535V145.026Z" fill="black"/>
<path d="M241.052 144.172C239.96 144.172 239.176 144.746 239.176 145.628C239.176 146.524 239.96 147.098 241.052 147.098C242.158 147.098 242.928 146.524 242.928 145.628C242.928 144.746 242.158 144.172 241.052 144.172ZM241.052 148.288C239.162 148.288 237.79 147.196 237.79 145.628C237.79 144.074 239.162 142.982 241.052 142.982C242.942 142.982 244.314 144.074 244.314 145.628C244.314 147.196 242.942 148.288 241.052 148.288ZM245.126 148.764L245.224 149.828C244.118 150.052 242.956 150.178 241.836 150.262V154.7H240.394V150.346C239.204 150.388 238.084 150.402 237.104 150.402L236.936 149.212C239.218 149.212 242.396 149.17 245.126 148.764ZM245.952 142.436H247.394V155.092H245.952V142.436ZM251.383 146.202C251.383 147.308 252.209 148.022 253.329 148.022C254.463 148.022 255.289 147.308 255.289 146.202C255.289 145.096 254.463 144.382 253.329 144.382C252.209 144.382 251.383 145.096 251.383 146.202ZM256.703 146.202C256.703 147.994 255.261 149.24 253.329 149.24C251.411 149.24 249.969 147.994 249.969 146.202C249.969 144.41 251.411 143.164 253.329 143.164C255.261 143.164 256.703 144.41 256.703 146.202ZM251.369 151.648V150.486H259.685V155.092H258.243V151.648H251.369ZM261.435 145.432H259.685V146.958H261.435V148.148H259.685V149.926H258.243V142.436H259.685V144.242H261.435V145.432ZM265.493 151.508V153.776H271.303V151.508H265.493ZM264.079 154.924V150.36H272.717V154.924H264.079ZM272.395 147.658H274.145V148.834H262.693V147.658H270.953C271.275 146.244 271.303 145.18 271.303 144.228H264.135V143.052H272.717V144.032C272.717 145.026 272.717 146.146 272.395 147.658ZM280.271 145.894C280.271 146.958 281.069 147.658 282.175 147.658C283.281 147.658 284.093 146.958 284.093 145.894C284.093 144.844 283.281 144.158 282.175 144.158C281.069 144.158 280.271 144.844 280.271 145.894ZM287.747 146.468H285.409C285.129 147.896 283.855 148.848 282.175 148.848C280.285 148.848 278.885 147.644 278.885 145.894C278.885 144.172 280.285 142.968 282.175 142.968C283.841 142.968 285.115 143.892 285.395 145.278H287.747V142.45H289.189V149.128H287.747V146.468ZM283.281 153.818V152.348H281.475V153.818H283.281ZM283.281 149.856H284.611V154.924H280.131V149.856H281.475V151.284H283.281V149.856ZM288.265 149.758V150.766C288.265 152.11 288.965 153.398 290.491 153.958L289.777 155.05C288.657 154.616 287.929 153.804 287.537 152.838C287.117 153.79 286.403 154.602 285.339 155.05L284.611 153.958C286.123 153.328 286.837 152.012 286.837 150.766V149.758H288.265ZM300.542 142.422H301.998V155.106H300.542V142.422ZM295.264 143.36C297.154 143.36 298.526 145.096 298.526 147.812C298.526 150.556 297.154 152.278 295.264 152.278C293.388 152.278 292.016 150.556 292.016 147.812C292.016 145.096 293.388 143.36 295.264 143.36ZM295.264 144.662C294.172 144.662 293.402 145.852 293.402 147.812C293.402 149.8 294.172 150.99 295.264 150.99C296.37 150.99 297.14 149.8 297.14 147.812C297.14 145.852 296.37 144.662 295.264 144.662ZM313.079 149.254H314.535V146.552H313.079C313.149 146.972 313.177 147.42 313.177 147.91C313.177 148.4 313.149 148.834 313.079 149.254ZM310.461 151.032C311.329 151.032 311.875 149.912 311.875 147.91C311.875 145.908 311.329 144.774 310.461 144.774C309.593 144.774 309.047 145.908 309.047 147.91C309.047 149.912 309.593 151.032 310.461 151.032ZM314.535 145.362V142.674H315.879V154.476H314.535V150.43H312.799C312.351 151.662 311.525 152.39 310.461 152.39C308.823 152.39 307.745 150.682 307.745 147.91C307.745 145.124 308.823 143.416 310.461 143.416C311.511 143.416 312.351 144.116 312.785 145.362H314.535ZM317.041 142.436H318.413V155.064H317.041V142.436ZM322.066 146.202C322.066 147.308 322.892 148.022 324.012 148.022C325.146 148.022 325.972 147.308 325.972 146.202C325.972 145.096 325.146 144.382 324.012 144.382C322.892 144.382 322.066 145.096 322.066 146.202ZM327.386 146.202C327.386 147.994 325.944 149.24 324.012 149.24C322.094 149.24 320.652 147.994 320.652 146.202C320.652 144.41 322.094 143.164 324.012 143.164C325.944 143.164 327.386 144.41 327.386 146.202ZM322.052 151.648V150.486H330.368V155.092H328.926V151.648H322.052ZM332.118 145.432H330.368V146.958H332.118V148.148H330.368V149.926H328.926V142.436H330.368V144.242H332.118V145.432ZM332.831 156.52L336.723 142.814H337.843L333.951 156.52H332.831ZM339.938 148.75L339.35 147.644C341.198 147.238 342.276 146.146 342.29 144.928H339.644V143.794H342.276V142.464H343.732V143.794H346.378V144.928H343.732C343.746 146.076 344.81 147.07 346.63 147.448L346.056 148.568C344.614 148.26 343.592 147.56 343.032 146.65C342.486 147.658 341.436 148.414 339.938 148.75ZM347.036 149.086L347.12 150.15C346.014 150.346 344.852 150.486 343.732 150.542V154.714H342.29V150.626C341.114 150.668 340.008 150.682 339.014 150.682L338.832 149.492C341.184 149.492 344.32 149.464 347.036 149.086ZM347.848 142.436H349.29V155.092H347.848V142.436ZM362.673 148.414L362.071 149.618C359.999 149.212 358.207 147.952 357.395 146.272C356.555 147.952 354.763 149.212 352.705 149.618L352.089 148.414C354.595 147.994 356.625 146.104 356.625 144.158V143.206H358.151V144.158C358.151 146.118 360.181 147.994 362.673 148.414ZM358.095 152.32H363.163V153.51H351.711V152.32H356.653V149.366H358.095V152.32ZM368.351 143.766H374.217C374.217 147.434 372.649 150.682 368.519 152.768L367.721 151.662C370.815 150.08 372.481 147.854 372.775 144.942H368.351V143.766ZM379.439 147.42V148.624H377.521V155.064H376.079V142.422H377.521V147.42H379.439ZM390.749 145.796V146.958H382.111V142.674H383.553V145.796H390.749ZM386.297 153.93C388.145 153.93 389.195 153.496 389.195 152.726C389.195 151.928 388.145 151.522 386.297 151.522C384.449 151.522 383.413 151.928 383.413 152.726C383.413 153.496 384.449 153.93 386.297 153.93ZM386.297 150.388C389.013 150.388 390.651 151.242 390.651 152.726C390.651 154.196 389.013 155.05 386.297 155.05C383.595 155.05 381.943 154.196 381.943 152.726C381.943 151.242 383.595 150.388 386.297 150.388ZM380.613 148.232H392.051V149.408H380.613V148.232Z" fill="#469EFF"/>
<path d="M434.868 144.886V146.104C434.868 148.064 436.114 150.304 438.032 151.214L437.234 152.348C435.82 151.676 434.742 150.276 434.168 148.68C433.608 150.444 432.488 151.956 431.032 152.67L430.206 151.522C432.138 150.598 433.426 148.204 433.426 146.104V144.886H430.668V143.696H437.542V144.886H434.868ZM442.204 147.42V148.61H440.23V155.078H438.788V142.436H440.23V147.42H442.204ZM449.007 153.972C450.855 153.972 451.905 153.566 451.905 152.782C451.905 152.012 450.855 151.592 449.007 151.592C447.159 151.592 446.123 152.012 446.123 152.782C446.123 153.566 447.159 153.972 449.007 153.972ZM449.007 150.486C451.723 150.486 453.361 151.326 453.361 152.782C453.361 154.252 451.723 155.092 449.007 155.092C446.305 155.092 444.653 154.252 444.653 152.782C444.653 151.326 446.305 150.486 449.007 150.486ZM449.763 148.54H454.761V149.716H443.337V148.54H448.321V147.28H444.751V142.996H453.361V144.144H446.179V146.118H453.445V147.28H449.763V148.54ZM465.232 145.278H462.306C461.522 147.21 459.66 148.498 456.874 149.128L456.37 147.952C459.366 147.308 460.92 145.922 461.116 144.158H457.056V142.996H462.712C462.712 143.402 462.684 143.794 462.614 144.158H465.232V142.436H466.674V148.848H465.232V147.7H462.138V146.58H465.232V145.278ZM459.912 153.804H467.024V154.966H458.47V151.564H465.232V150.514H458.442V149.366H466.674V152.642H459.912V153.804ZM472.917 144.998V145.908C472.917 148.064 473.729 150.248 475.493 151.27L474.653 152.32C473.463 151.62 472.679 150.374 472.231 148.904C471.783 150.5 470.971 151.858 469.753 152.628L468.885 151.564C470.677 150.444 471.517 148.162 471.517 145.908V144.998H469.291V143.808H475.003V144.998H472.917ZM475.941 146.874V142.674H477.299V154.462H475.941V148.05H474.079V146.874H475.941ZM478.489 142.422H479.861V155.064H478.489V142.422ZM495.521 142.422V149.646H494.065V142.422H495.521ZM490.341 147.322V144.368H487.163V147.322H490.341ZM491.741 143.22V148.47H485.749V143.22H491.741ZM495.759 151.536H492.147C492.259 152.572 493.883 153.706 496.221 153.958L495.745 155.05C493.743 154.812 492.175 154 491.405 152.908C490.635 154.014 489.039 154.812 487.023 155.05L486.547 153.958C488.913 153.72 490.551 152.614 490.663 151.536H487.037V150.43H490.663V149.296H492.133V150.43H495.759V151.536Z" fill="black"/>
<path d="M428.947 167.098V164.242H425.867V167.098H428.947ZM430.361 163.094V168.246H424.439V163.094H430.361ZM427.155 172.628V173.776H434.295V174.924H425.741V171.578H432.447V170.5H425.713V169.366H433.875V172.628H427.155ZM433.875 165.026H435.653V166.216H433.875V168.82H432.433V162.436H433.875V165.026ZM444.234 167.84L444.388 169.016C442.484 169.352 440.832 169.422 438.41 169.422H437.388V165.712H441.672V164.354H437.36V163.192H443.1V166.804H438.802V168.246C440.972 168.232 442.498 168.162 444.234 167.84ZM442.666 173.972C444.444 173.972 445.466 173.538 445.466 172.726C445.466 171.928 444.444 171.494 442.666 171.494C440.874 171.494 439.866 171.928 439.866 172.726C439.866 173.538 440.874 173.972 442.666 173.972ZM442.666 170.374C445.284 170.374 446.88 171.242 446.88 172.726C446.88 174.21 445.284 175.078 442.666 175.078C440.048 175.078 438.452 174.21 438.452 172.726C438.452 171.242 440.048 170.374 442.666 170.374ZM446.754 165.502H448.546V166.692H446.754V170.038H445.312V162.422H446.754V165.502ZM459.941 169.114V170.276H451.177V163.458H459.843V164.62H452.647V166.244H459.563V167.378H452.647V169.114H459.941ZM449.763 172.348H461.229V173.524H449.763V172.348ZM470.3 167.63L470.468 168.806C468.48 169.128 466.772 169.184 464.35 169.184H463.286V165.516H467.626V164.2H463.258V163.024H469.04V166.608H464.714V168.008C466.884 168.008 468.466 167.938 470.3 167.63ZM471.63 173.762V172.446H466.212V173.762H471.63ZM471.63 171.312V170.01H473.058V174.924H464.77V170.01H466.212V171.312H471.63ZM471.616 162.436H473.058V169.422H471.616V162.436ZM486.099 163.5V164.55H478.875V163.5H481.773V162.324H483.229V163.5H486.099ZM480.835 166.832C480.835 167.392 481.479 167.728 482.487 167.728C483.495 167.728 484.139 167.392 484.139 166.832C484.139 166.258 483.495 165.908 482.487 165.908C481.479 165.908 480.835 166.258 480.835 166.832ZM486.449 169.156L486.561 170.164C483.887 170.64 480.933 170.654 478.721 170.668L478.553 169.52C479.505 169.52 480.611 169.52 481.773 169.492V168.652C480.345 168.498 479.477 167.826 479.477 166.832C479.477 165.656 480.667 164.942 482.487 164.942C484.307 164.942 485.497 165.656 485.497 166.832C485.497 167.826 484.629 168.484 483.229 168.652V169.436C484.321 169.38 485.427 169.31 486.449 169.156ZM480.121 172.698V171.55H488.563V175.092H487.121V172.698H480.121ZM490.299 166.174V167.364H488.563V170.99H487.121V162.45H488.563V166.174H490.299ZM498.334 165.614H500.574V162.436H502.016V169.968H500.574V166.79H498.334V165.614ZM499.062 168.428L498.348 169.562C496.948 169.072 495.94 168.078 495.408 166.86C494.848 168.246 493.784 169.366 492.286 169.898L491.544 168.75C493.504 168.05 494.638 166.37 494.638 164.634V164.452H491.964V163.29H498.726V164.452H496.094V164.62C496.094 166.202 497.172 167.77 499.062 168.428ZM497.816 173.972C499.594 173.972 500.63 173.524 500.63 172.698C500.63 171.872 499.594 171.424 497.816 171.424C496.01 171.424 494.988 171.872 494.988 172.698C494.988 173.524 496.01 173.972 497.816 173.972ZM497.816 170.304C500.448 170.304 502.072 171.2 502.072 172.698C502.072 174.21 500.448 175.092 497.816 175.092C495.17 175.092 493.546 174.21 493.546 172.698C493.546 171.2 495.17 170.304 497.816 170.304Z" fill="#469EFF"/>
<path d="M572.109 144.172C571.017 144.172 570.233 144.746 570.233 145.628C570.233 146.524 571.017 147.098 572.109 147.098C573.215 147.098 573.985 146.524 573.985 145.628C573.985 144.746 573.215 144.172 572.109 144.172ZM572.109 148.288C570.219 148.288 568.847 147.196 568.847 145.628C568.847 144.074 570.219 142.982 572.109 142.982C573.999 142.982 575.371 144.074 575.371 145.628C575.371 147.196 573.999 148.288 572.109 148.288ZM576.183 148.764L576.281 149.828C575.175 150.052 574.013 150.178 572.893 150.262V154.7H571.451V150.346C570.261 150.388 569.141 150.402 568.161 150.402L567.993 149.212C570.275 149.212 573.453 149.17 576.183 148.764ZM577.009 142.436H578.451V155.092H577.009V142.436ZM582.44 146.202C582.44 147.308 583.266 148.022 584.386 148.022C585.52 148.022 586.346 147.308 586.346 146.202C586.346 145.096 585.52 144.382 584.386 144.382C583.266 144.382 582.44 145.096 582.44 146.202ZM587.76 146.202C587.76 147.994 586.318 149.24 584.386 149.24C582.468 149.24 581.026 147.994 581.026 146.202C581.026 144.41 582.468 143.164 584.386 143.164C586.318 143.164 587.76 144.41 587.76 146.202ZM582.426 151.648V150.486H590.742V155.092H589.3V151.648H582.426ZM592.492 145.432H590.742V146.958H592.492V148.148H590.742V149.926H589.3V142.436H590.742V144.242H592.492V145.432ZM596.551 151.508V153.776H602.361V151.508H596.551ZM595.137 154.924V150.36H603.775V154.924H595.137ZM603.453 147.658H605.203V148.834H593.751V147.658H602.011C602.333 146.244 602.361 145.18 602.361 144.228H595.193V143.052H603.775V144.032C603.775 145.026 603.775 146.146 603.453 147.658ZM616.565 145.614H618.805V142.436H620.247V149.968H618.805V146.79H616.565V145.614ZM617.293 148.428L616.579 149.562C615.179 149.072 614.171 148.078 613.639 146.86C613.079 148.246 612.015 149.366 610.517 149.898L609.775 148.75C611.735 148.05 612.869 146.37 612.869 144.634V144.452H610.195V143.29H616.957V144.452H614.325V144.62C614.325 146.202 615.403 147.77 617.293 148.428ZM616.047 153.972C617.825 153.972 618.861 153.524 618.861 152.698C618.861 151.872 617.825 151.424 616.047 151.424C614.241 151.424 613.219 151.872 613.219 152.698C613.219 153.524 614.241 153.972 616.047 153.972ZM616.047 150.304C618.679 150.304 620.303 151.2 620.303 152.698C620.303 154.21 618.679 155.092 616.047 155.092C613.401 155.092 611.777 154.21 611.777 152.698C611.777 151.2 613.401 150.304 616.047 150.304ZM628.911 148.554L628.253 149.632C627.091 149.184 626.293 148.372 625.831 147.336C625.397 148.456 624.585 149.366 623.381 149.856L622.695 148.778C624.305 148.148 625.117 146.72 625.117 145.236V145.138H622.989V143.99H625.117V142.562H626.503V143.99H628.575V145.138H626.503V145.236C626.503 146.65 627.329 147.98 628.911 148.554ZM624.781 151.97V150.808H633.349V155.092H631.907V151.97H624.781ZM631.977 142.45H633.349V150.192H631.977V146.902H630.675V150.122H629.317V142.66H630.675V145.726H631.977V142.45ZM646.195 148.428L645.481 149.548C644.081 149.058 643.073 148.064 642.527 146.846C641.967 148.204 640.903 149.296 639.405 149.814L638.663 148.68C640.623 148.008 641.771 146.342 641.771 144.634V144.382H639.097V143.22H645.859V144.382H643.227V144.62C643.227 146.188 644.305 147.77 646.195 148.428ZM640.623 151.774V150.612H649.149V155.078H647.707V151.774H640.623ZM647.707 142.422H649.149V149.982H647.707V146.79H645.495V145.6H647.707V142.422ZM657.24 153.972C659.088 153.972 660.138 153.58 660.138 152.81C660.138 152.054 659.088 151.648 657.24 151.648C655.392 151.648 654.356 152.054 654.356 152.81C654.356 153.58 655.392 153.972 657.24 153.972ZM657.24 150.542C659.97 150.542 661.594 151.368 661.594 152.81C661.594 154.266 659.97 155.078 657.24 155.078C654.524 155.078 652.886 154.266 652.886 152.81C652.886 151.368 654.524 150.542 657.24 150.542ZM655.7 147.294V148.582H658.808V147.294C658.346 147.364 657.828 147.406 657.268 147.406C656.708 147.406 656.162 147.364 655.7 147.294ZM657.268 143.766C655.378 143.766 654.244 144.214 654.244 145.026C654.244 145.838 655.378 146.3 657.268 146.3C659.144 146.3 660.278 145.838 660.278 145.026C660.278 144.214 659.144 143.766 657.268 143.766ZM660.25 148.582H662.98V149.73H651.542V148.582H654.258V146.902C653.306 146.496 652.76 145.852 652.76 145.026C652.76 143.542 654.496 142.646 657.268 142.646C660.026 142.646 661.776 143.542 661.776 145.026C661.776 145.852 661.216 146.496 660.25 146.916V148.582Z" fill="#469EFF"/>
</svg>
