<svg width="32" height="32" viewBox="0 0 32 32" fill="none" xmlns="http://www.w3.org/2000/svg">
<path d="M13.6132 9.9007L12.853 10.9961L20.8603 16.5531L21.6205 15.4577L13.6132 9.9007Z" fill="#1E1E1E"/>
<path d="M20.8705 15.447L10.3713 22.6279L11.124 23.7285L21.6232 16.5476L20.8705 15.447Z" fill="#1E1E1E"/>
<path d="M21.2534 19.2133C23.028 19.2133 24.4667 17.7746 24.4667 16C24.4667 14.2253 23.028 12.7866 21.2534 12.7866C19.4787 12.7866 18.04 14.2253 18.04 16C18.04 17.7746 19.4787 19.2133 21.2534 19.2133Z" fill="white"/>
<path d="M21.2534 19.8801C19.1067 19.8801 17.3734 18.1335 17.3734 16.0001C17.3734 13.8668 19.12 12.1201 21.2534 12.1201C23.3867 12.1201 25.1334 13.8668 25.1334 16.0001C25.1334 18.1335 23.3867 19.8801 21.2534 19.8801ZM21.2534 13.4535C19.8534 13.4535 18.7067 14.6001 18.7067 16.0001C18.7067 17.4001 19.8534 18.5468 21.2534 18.5468C22.6534 18.5468 23.8 17.4001 23.8 16.0001C23.8 14.6001 22.6534 13.4535 21.2534 13.4535Z" fill="#1E1E1E"/>
<path d="M10.7467 26.3866C12.5213 26.3866 13.96 24.948 13.96 23.1733C13.96 21.3986 12.5213 19.96 10.7467 19.96C8.97198 19.96 7.53333 21.3986 7.53333 23.1733C7.53333 24.948 8.97198 26.3866 10.7467 26.3866Z" fill="white"/>
<path d="M10.7466 27.0535C8.59997 27.0535 6.86664 25.3068 6.86664 23.1735C6.86664 21.0401 8.61331 19.2935 10.7466 19.2935C12.88 19.2935 14.6266 21.0401 14.6266 23.1735C14.6266 25.3068 12.88 27.0535 10.7466 27.0535ZM10.7466 20.6268C9.34664 20.6268 8.19997 21.7735 8.19997 23.1735C8.19997 24.5735 9.34664 25.7201 10.7466 25.7201C12.1466 25.7201 13.2933 24.5735 13.2933 23.1735C13.2933 21.7735 12.1466 20.6268 10.7466 20.6268Z" fill="#1E1E1E"/>
<path d="M10.7467 12.0399C12.5213 12.0399 13.96 10.6013 13.96 8.82661C13.96 7.05194 12.5213 5.61328 10.7467 5.61328C8.97198 5.61328 7.53333 7.05194 7.53333 8.82661C7.53333 10.6013 8.97198 12.0399 10.7467 12.0399Z" fill="white"/>
<path d="M10.7466 12.7068C8.59997 12.7068 6.86664 10.9601 6.86664 8.82678C6.86664 6.69344 8.61331 4.94678 10.7466 4.94678C12.88 4.94678 14.6266 6.69344 14.6266 8.82678C14.6266 10.9601 12.88 12.7068 10.7466 12.7068ZM10.7466 6.28011C9.34664 6.28011 8.19997 7.42678 8.19997 8.82678C8.19997 10.2268 9.34664 11.3734 10.7466 11.3734C12.1466 11.3734 13.2933 10.2268 13.2933 8.82678C13.2933 7.42678 12.1466 6.28011 10.7466 6.28011Z" fill="#1E1E1E"/>
</svg>
