<?xml version="1.0" encoding="UTF-8"?>
<svg id="Layer_1" data-name="Layer 1" xmlns="http://www.w3.org/2000/svg" width="55.2" height="72" viewBox="0 0 24 24">
  <defs>
    <style>
      .cls-1 {
        fill: #fff;
      }

      .cls-1, .cls-2 {
        stroke-width: 0px;
      }

      .cls-2 {
        fill: #ff577f;
      }
    </style>
  </defs>
  <path class="cls-1" d="m16.94,4.7c-2.73-2.73-7.15-2.73-9.88,0-2.23,2.23-2.64,5.6-1.21,8.25.03.06.05.13.09.19l4.45,7.31s.02.02.02.03c.05.08.11.15.17.22.02.03.05.06.07.08.06.06.12.11.18.16.04.03.08.06.12.09.02.02.04.04.07.05.04.02.08.04.12.06.05.03.1.05.15.07.06.03.13.05.2.07.05.02.1.03.16.04.07.01.13.02.2.03.06,0,.12,0,.18,0,.06,0,.12,0,.18,0,.07,0,.13-.02.2-.03.05-.01.1-.02.16-.04.07-.02.13-.04.2-.07.05-.02.1-.05.15-.07.04-.02.08-.03.12-.06.02-.02.04-.04.07-.05.04-.03.08-.06.12-.09.06-.05.12-.1.18-.16.03-.03.05-.05.07-.08.06-.07.12-.14.17-.22,0-.01.02-.02.02-.03l4.45-7.31c.04-.06.06-.12.09-.19,1.42-2.64,1.02-6.01-1.21-8.25Z"/>
  <g>
    <path class="cls-2" d="m16.94,4.7c-2.73-2.73-7.15-2.73-9.88,0-2.23,2.23-2.64,5.6-1.21,8.25.03.06.05.13.09.19l4.45,7.31s.02.02.02.03c.05.08.11.15.17.22.02.03.05.06.07.08.06.06.12.11.18.16.04.03.08.06.12.09.02.02.04.04.07.05.04.02.08.04.12.06.05.03.1.05.15.07.06.03.13.05.2.07.05.02.1.03.16.04.07.01.13.02.2.03.06,0,.12,0,.18,0,.06,0,.12,0,.18,0,.07,0,.13-.02.2-.03.05-.01.1-.02.16-.04.07-.02.13-.04.2-.07.05-.02.1-.05.15-.07.04-.02.08-.03.12-.06.02-.02.04-.04.07-.05.04-.03.08-.06.12-.09.06-.05.12-.1.18-.16.03-.03.05-.05.07-.08.06-.07.12-.14.17-.22,0-.01.02-.02.02-.03l4.45-7.31c.04-.06.06-.12.09-.19,1.42-2.65,1.02-6.01-1.21-8.25Zm-8.92,3.44v-.39h1.38v-.4h.52v.4h1.38v.39h-1.34c.1.36.66.61,1.54.66l-.14.39c-.8-.05-1.42-.27-1.71-.66-.29.38-.9.6-1.7.66l-.15-.39c.89-.05,1.45-.3,1.55-.66h-1.33Zm3.68,1.59h-1.79v.35h1.28v1.05h-2.57v.34h2.7v.39h-3.21v-1.08h2.58v-.32h-2.59v-.38h1.3v-.35h-1.78v-.39h4.08v.39Zm.67-.19v-1.98h.52v.6h1.11v-.6h.51v1.98h-2.13Zm3.52,2.31h-3.06v-1.19h2.4v-.38h-2.41v-.4h2.92v1.16h-2.4v.4h2.55v.41Zm.49-3.13h-.63v.97h-.52v-2.32h.52v.93h.63v.43Z"/>
    <rect class="cls-2" x="12.89" y="8.56" width="1.11" height=".58"/>
  </g>
</svg>