<svg width="4" height="7" viewBox="0 0 4 7" fill="none" xmlns="http://www.w3.org/2000/svg">
<path d="M0.792625 6.86148L3.89861 3.75858C3.93548 3.72164 3.96165 3.68162 3.97714 3.63852C3.99262 3.59543 4.00024 3.54925 3.99999 3.5C3.99999 3.45075 3.99225 3.40457 3.97677 3.36148C3.96128 3.31838 3.93523 3.27836 3.89861 3.24142L0.792625 0.129288C0.706604 0.0430958 0.599077 0 0.470045 0C0.341013 0 0.230414 0.0461741 0.138248 0.138522C0.0460827 0.230871 0 0.33861 0 0.461741C0 0.584872 0.0460827 0.692612 0.138248 0.784961L2.84792 3.5L0.138248 6.21504C0.052227 6.30123 0.00921631 6.40749 0.00921631 6.53383C0.00921631 6.66016 0.0552993 6.76938 0.147465 6.86148C0.239631 6.95383 0.347157 7 0.470045 7C0.592933 7 0.70046 6.95383 0.792625 6.86148Z" fill="#666666"/>
</svg>
