<svg width="24" height="24" viewBox="0 0 24 24" fill="none" xmlns="http://www.w3.org/2000/svg">
<g id="&#236;&#176;&#156; &#236;&#156;&#164;&#234;&#179;&#189;&#236;&#132;&#160;">
<path id="Vector" d="M19.39 5.65979C17.55 3.81979 14.56 3.81979 12.71 5.65979L12 6.36979L11.29 5.65979C9.44998 3.81979 6.45998 3.81979 4.60998 5.65979C2.76998 7.49979 2.76998 10.4898 4.60998 12.3398L5.31998 13.0498L12 19.7298L18.68 13.0498L19.39 12.3398C21.23 10.4998 21.23 7.50979 19.39 5.65979Z" fill="#EAF4FF"/>
<path id="Vector_2" d="M12 20.4298L4.25998 12.6898C3.26998 11.6998 2.72998 10.3898 2.72998 8.99979C2.72998 7.60979 3.26998 6.28979 4.25998 5.30979C6.29998 3.26979 9.60998 3.27979 11.64 5.30979L12 5.66979L12.36 5.30979C14.4 3.26979 17.71 3.26979 19.74 5.30979C21.78 7.34979 21.78 10.6598 19.74 12.6898L12 20.4298ZM7.94998 4.77979C6.86998 4.77979 5.78998 5.18979 4.95998 6.00979C4.15998 6.80979 3.71998 7.86979 3.71998 8.98979C3.71998 10.1098 4.15998 11.1798 4.95998 11.9798L12 19.0198L19.04 11.9798C20.69 10.3298 20.69 7.65979 19.04 6.00979C17.39 4.35979 14.72 4.35979 13.07 6.00979L12 7.07979L10.93 6.00979C10.11 5.18979 9.02998 4.77979 7.94998 4.77979Z" fill="#469EFF"/>
</g>
</svg>
